<?xml version="1.0" encoding="UTF-8" standalone="no"?>
<svg
   xmlns:dc="http://purl.org/dc/elements/1.1/"
   xmlns:cc="http://creativecommons.org/ns#"
   xmlns:rdf="http://www.w3.org/1999/02/22-rdf-syntax-ns#"
   xmlns:svg="http://www.w3.org/2000/svg"
   xmlns="http://www.w3.org/2000/svg"
   xmlns:sodipodi="http://sodipodi.sourceforge.net/DTD/sodipodi-0.dtd"
   xmlns:inkscape="http://www.inkscape.org/namespaces/inkscape"
   sodipodi:docname="accessories.svg"
   inkscape:version="1.0 (4035a4fb49, 2020-05-01)"
   id="svg8"
   version="1.1"
   viewBox="0 0 507.99999 285.75001"
   height="1080"
   width="1920">
  <defs
     id="defs2" />
  <sodipodi:namedview
     inkscape:window-maximized="1"
     inkscape:window-y="-8"
     inkscape:window-x="-8"
     inkscape:window-height="705"
     inkscape:window-width="1366"
     units="px"
     showgrid="false"
     inkscape:document-rotation="0"
     inkscape:current-layer="layer2"
     inkscape:document-units="mm"
     inkscape:cy="544.18334"
     inkscape:cx="361.20662"
     inkscape:zoom="0.32500809"
     inkscape:pageshadow="2"
     inkscape:pageopacity="0.0"
     borderopacity="1.0"
     bordercolor="#666666"
     pagecolor="#ffffff"
     id="base"
     inkscape:snap-global="false"
     showguides="true"
     inkscape:guide-bbox="true" />
  <metadata
     id="metadata5">
    <rdf:RDF>
      <cc:Work
         rdf:about="">
        <dc:format>image/svg+xml</dc:format>
        <dc:type
           rdf:resource="http://purl.org/dc/dcmitype/StillImage" />
        <dc:title />
      </cc:Work>
    </rdf:RDF>
  </metadata>
  <g
     inkscape:label="Ring"
     id="layer2"
     inkscape:groupmode="layer">
    <g
       id="g49"
       transform="translate(3.8634206,-84.443134)"
       style="stroke-width:1">
      <g
         id="g448"
         transform="translate(-39.806873,62.442155)">
        <path
           sodipodi:nodetypes="ccccccc"
           id="path67"
           d="m 277.8125,155.575 c -51.43401,10.04726 -34.37226,34.85973 0.52916,40.21666 5.58223,0.36577 9.98701,0.0436 14.08907,-0.33073 18.89538,-0.42893 60.64127,-25.87177 0.7276,-40.4151 -0.84933,0.84207 -1.26023,1.85952 -2.91042,2.38125 -2.87518,0.14586 -6.01506,0.15836 -9.94231,-0.22583 -1.23696,-0.0347 -1.95801,-0.71423 -2.4931,-1.62625 z"
           style="fill:none;stroke:#000000;stroke-width:1;stroke-linecap:butt;stroke-linejoin:miter;stroke-opacity:1" />
        <path
           id="path69"
           d="m 293.15833,155.04583 c 2.2324,-2.57419 5.16061,-4.45259 5.68854,-8.73125 0.3343,-3.56831 0.51991,-7.28529 -0.59531,-12.30312 2.95045,-4.63823 -1.89313,-6.76991 -4.82865,-3.70417 -0.80332,0.0595 -1.49709,0.44761 -2.64583,-0.52917 -2.63021,-1.25816 -6.08497,-1.2795 -10.18646,-0.33073 -0.76432,0.30868 -1.20656,0.61737 -2.64583,0.92605 -5.91379,-4.1075 -6.4917,3.58524 -3.83646,2.77812 -1.9743,10.41748 -1.37133,10.68025 -1.34567,14.43117 -0.55111,3.39045 2.3134,6.21716 5.04984,7.99227"
           style="fill:none;stroke:#000000;stroke-width:1;stroke-linecap:butt;stroke-linejoin:miter;stroke-opacity:1"
           sodipodi:nodetypes="cccccccccc" />
        <path
           style="fill:none;stroke:#000000;stroke-width:1;stroke-linecap:butt;stroke-linejoin:miter;stroke-opacity:1"
           d="m 272.78443,146.53367 c -59.49142,23.2137 -23.95837,50.29978 11.1763,51.19019 22.1995,2.28636 85.66235,-22.04498 14.76374,-50.77626"
           id="path13"
           sodipodi:nodetypes="ccc" />
        <path
           style="fill:none;stroke:#000000;stroke-width:1;stroke-linecap:butt;stroke-linejoin:miter;stroke-opacity:1"
           d="m 273.06039,139.49674 c -21.12232,6.56893 -33.09178,16.98784 -32.15676,33.11495"
           id="path15"
           sodipodi:nodetypes="cc" />
        <path
           style="fill:none;stroke:#000000;stroke-width:1;stroke-linecap:butt;stroke-linejoin:miter;stroke-opacity:1"
           d="m 299.13842,139.63472 c 33.98822,14.32628 29.94808,24.83439 31.28671,29.69997"
           id="path17"
           sodipodi:nodetypes="cc" />
        <path
           style="fill:none;stroke:#000000;stroke-width:1;stroke-linecap:butt;stroke-linejoin:miter;stroke-opacity:1"
           d="m 247.81023,168.6103 c 8.94992,28.78658 68.49893,21.73426 75.47451,2.75958"
           id="path19"
           sodipodi:nodetypes="cc" />
        <path
           style="fill:#80ffe6;fill-opacity:1;stroke-width:3.77953"
           d="m 1071.0148,746.5435 c -22.5564,-1.41288 -40.4023,-3.95757 -56.8355,-8.10435 -54.97676,-13.8729 -93.39998,-40.69807 -101.3961,-70.78964 -1.64704,-6.19827 -1.67457,-16.59491 -0.0605,-22.86267 7.57291,-29.40777 43.10264,-58.249 103.3479,-83.89264 14.9175,-6.34967 13.3845,-6.36577 13.8023,0.14495 0.5283,8.23262 3.379,13.5061 11.3142,20.93035 l 6.2601,5.85703 -3.3827,0.50726 c -7.0991,1.06459 -33.5581,8.03952 -45.04539,11.87457 -27.61504,9.2193 -45.33061,18.85071 -58.23473,31.66043 -5.43296,5.39321 -7.28361,7.83342 -9.797,12.91805 -3.97093,8.03323 -5.0915,14.27365 -3.91823,21.82041 4.88758,31.43817 50.76369,60.31253 115.55165,72.72811 7.9576,1.52494 10.8956,1.6908 29.1315,1.64467 23.7075,-0.06 43.2832,-1.61223 55.9158,-4.43385 38.1628,-8.52408 76.2358,-30.7241 90.7018,-52.88744 9.2179,-14.12263 10.3361,-26.42211 3.6244,-39.86578 -5.3511,-10.71849 -18.5356,-22.21831 -36.0355,-31.43112 -15.6008,-8.21299 -41.912,-17.87446 -65.6336,-24.10067 l -10.7964,-2.83372 6.8631,-7.15037 c 6.8331,-7.1192 11.7062,-14.43324 12.6027,-18.91554 0.2571,-1.28584 0.7849,-2.33789 1.1729,-2.33789 1.421,0 24.1743,10.08738 36.7231,16.28068 37.0455,18.28342 62.7568,37.40913 74.9741,55.77059 14.4485,21.71472 12.4274,42.12444 -6.1595,62.20044 -30.5762,33.02598 -107.5244,58.84886 -164.6904,55.26814 z"
           id="path21"
           transform="scale(0.26458333)" />
        <path
           style="fill:#80ffe6;fill-opacity:1;stroke-width:3.77953"
           d="m 911.42372,638.51804 c 2.06633,-24.48536 11.64252,-44.27801 30.055,-62.11947 18.93347,-18.34631 44.32837,-32.53069 80.30078,-44.8522 l 9.4237,-3.22784 -0.4715,1.8785 c -0.2593,1.03317 -0.6772,6.70591 -0.9287,12.60608 l -0.4573,10.72758 -12.1688,5.07813 c -23.51818,9.81428 -41.73938,19.31209 -58.63171,30.56182 -24.79612,16.51337 -39.62272,32.7747 -46.12596,50.58941 l -1.43118,3.92053 z"
           id="path23"
           transform="scale(0.26458333)" />
        <path
           transform="scale(0.26458333)"
           style="fill:#80ffe6;fill-opacity:1;stroke-width:3.77953"
           d="m 1243.0714,627.63983 c -8.7123,-13.18797 -26.3024,-28.12499 -49.3632,-41.91778 -10.7552,-6.4328 -39.0791,-20.53293 -52.9991,-26.38394 l -10.3251,-4.33995 0.2733,-4.70293 c 0.1502,-2.5866 0.4821,-8.40243 0.7375,-12.92406 l 0.4642,-8.22114 11.0626,4.95411 c 47.051,21.07064 78.0308,42.48618 92.3673,63.85108 4.2627,6.35239 6.5616,11.22946 8.5841,18.21088 1.6101,5.55813 3.2735,16.08314 2.5418,16.08314 -0.1641,0 -1.6686,-2.07424 -3.3434,-4.60941 z"
           id="path25" />
        <path
           style="fill:#00d4aa;fill-opacity:1;stroke-width:3.77953"
           d="m 1054.0522,739.20609 c -3.4479,-0.34373 -10.5832,-1.49729 -15.8564,-2.56345 -68.52465,-13.8548 -114.64955,-47.59207 -109.46758,-80.06823 0.79796,-5.00094 3.20265,-11.0225 5.93315,-14.85713 l 1.60781,-2.25797 1.64695,4.04812 c 15.80324,38.84346 57.01156,62.24667 117.97987,67.00361 13.0456,1.01786 34.6415,0.48423 49.0441,-1.21186 55.4617,-6.53136 100.8637,-28.45324 114.8677,-55.46273 l 2.7645,-5.33176 0.9076,3.48799 c 2.3578,9.06068 0.6026,18.79179 -5.1501,28.55281 -3.7033,6.28358 -14.3308,17.42999 -22.3078,23.397 -19.6428,14.69334 -48.4785,27.32227 -72.7396,31.85717 -14.5018,2.71068 -55.8176,4.7436 -69.2302,3.40643 z"
           id="path27"
           transform="scale(0.26458333)" />
        <path
           sodipodi:nodetypes="ccccccccccc"
           style="fill:#000080;stroke:#000000;stroke-width:1;stroke-linecap:butt;stroke-linejoin:miter;stroke-opacity:1"
           d="m 291.84559,152.72218 c 1.82963,-2.10976 4.22954,-3.64927 4.66222,-7.15598 0.27399,-2.92452 0.42611,-5.9709 -0.4879,-10.08342 2.41813,-3.80141 -1.55158,-5.5485 -3.95748,-3.03587 -0.65839,0.0488 -1.22699,0.36685 -2.16847,-0.4337 -2.15568,-1.03117 -4.98714,-1.04866 -8.34865,-0.27106 -0.62642,0.25299 -0.98887,0.50598 -2.16847,0.75897 -4.84684,-3.36643 -5.32049,2.9384 -3.1443,2.2769 -1.6181,8.53798 -1.12392,8.75335 -1.10289,11.82753 -0.45168,2.77876 1.89603,5.09548 4.13876,6.55033 3.75556,1.93037 7.78631,2.55365 12.57718,-0.4337 z"
           id="path31" />
        <path
           style="fill:#008080;fill-opacity:1;stroke-width:3.77953"
           d="m 1073.0922,594.49452 c -1.4197,-0.0768 -5.635,-0.38651 -9.3673,-0.6883 -6.2566,-0.5059 -6.9325,-0.63112 -8.6657,-1.60528 -1.0338,-0.58111 -2.5434,-1.89757 -3.3547,-2.92546 -0.8113,-1.02789 -3.1344,-3.10896 -5.1625,-4.6246 -8.2381,-6.15636 -13.4451,-13.14945 -14.7391,-19.795 -0.7328,-3.76308 -0.5225,-28.35819 0.2917,-34.10964 1.2074,-8.52958 3.3329,-21.28623 4.5378,-27.23433 0.2129,-1.05137 0.2111,-1.0525 -1.3034,-0.79663 -1.3902,0.23486 -1.6212,0.15168 -2.7704,-0.9975 -1.5298,-1.52985 -1.9859,-3.78006 -1.3247,-6.53633 1.4459,-6.02713 7.0328,-7.91782 13.8417,-4.68427 1.5485,0.73538 3.325,1.69989 3.9478,2.14336 1.0374,0.73869 1.2981,0.77156 3.1081,0.3919 1.0867,-0.22793 3.6753,-1.09756 5.7526,-1.93251 5.8224,-2.34036 12.5279,-3.41135 21.6612,-3.4597 7.3547,-0.0389 10.6112,0.36459 15.0768,1.86823 1.7101,0.57585 2.4207,0.91158 6.4953,3.06873 2.1205,1.12264 2.3343,1.16108 5.1418,0.92442 2.752,-0.23199 3.031,-0.33743 4.6094,-1.74187 3.5312,-3.14197 8.9394,-4.68538 12.7781,-3.6466 3.4463,0.93262 5.8725,3.78962 6.3027,7.42193 0.2669,2.25369 -0.2897,4.54631 -1.9916,8.20336 l -1.3315,2.86117 0.814,4.32951 c 1.4657,7.79536 1.9313,12.31906 2.1452,20.84333 0.2279,9.07936 -0.2983,19.21172 -1.2393,23.86462 -0.7044,3.48288 -2.2889,7.61537 -4.0779,10.63494 -1.9257,3.25045 -4.8401,6.72797 -11.8537,14.14416 -3.3187,3.50929 -7.2227,7.65876 -8.6755,9.22105 -1.9202,2.06497 -3.2247,3.1076 -4.7779,3.81868 -2.1338,0.97686 -2.1504,0.97827 -12.7122,1.07818 -5.8165,0.055 -11.7371,0.0372 -13.1568,-0.0396 z m 12.0319,-9.52803 c 4.3877,-0.76517 8.3379,-2.11336 13.2276,-4.51464 4.1761,-2.05079 4.3193,-2.16375 9.4032,-7.41478 6.4691,-6.68177 8.6596,-9.42456 10.507,-13.15617 1.9995,-4.03869 2.8093,-7.51561 3.3417,-14.34636 0.7881,-10.11314 0.1561,-21.88233 -1.6543,-30.80633 -0.4703,-2.31842 -0.4571,-2.4261 0.5641,-4.58544 1.5374,-3.25073 1.9908,-5.83541 1.4487,-8.25788 -1.4822,-6.62322 -10.0686,-8.35154 -16.6041,-3.34216 -1.7267,1.32356 -2.3455,1.57816 -4.164,1.71342 -1.9057,0.14175 -2.3396,0.0322 -4.0265,-1.01638 -2.1491,-1.33595 -5.9887,-2.70014 -9.5096,-3.37865 -5.5216,-1.06409 -19.1164,-0.11766 -23.8596,1.66104 -0.77,0.28873 -2.7872,1.02454 -4.4827,1.63512 l -3.0827,1.11016 -1.8194,-1.11948 c -4.4491,-2.73752 -8.9371,-3.36165 -11.8592,-1.64919 -2.257,1.32268 -3.658,4.00207 -3.6866,7.05072 -0.028,2.98284 0.8598,4.606 2.9125,5.32411 l 1.4722,0.51503 -1.0363,5.75377 c -2.8242,15.68188 -3.0137,17.62614 -3.0233,31.01334 -0.01,11.76078 0.031,12.48012 0.8145,14.99916 1.5461,4.96794 6.7352,11.22054 13.021,15.68961 4.2893,3.04965 13.0507,6.40157 18.9576,7.25277 3.5628,0.51341 9.8001,0.45131 13.1382,-0.13079 z"
           id="path35"
           transform="scale(0.26458333)" />
      </g>
    </g>
  </g>
  <g
     inkscape:groupmode="layer"
     id="layer3"
     inkscape:label="Necklace"
     style="display:inline;opacity:0.932099">
    <g
       id="g187"
       transform="translate(17.37641,5.5908754)">
      <g
         transform="translate(-96.78534,16.391066)"
         id="g119">
        <g
           id="g102">
          <path
             sodipodi:nodetypes="csssscsc"
             id="path52"
             d="m 493.29302,129.27477 c -7.41308,-7.89071 -10.53374,-24.05897 0.10591,-22.80235 20.76275,2.45223 -11.93635,33.18756 -23.71851,61.58597 -17.55252,42.30664 5.36317,53.22016 23.73238,55.7435 39.39114,5.41108 38.59469,-82.05519 -2.50707,-66.68408 -3.05517,1.14257 -4.67995,1.59017 -8.1863,3.90365 31.60806,-40.10069 34.91111,-59.277 10.14145,-60.29681 -15.88577,-0.65404 -23.63617,23.33662 -5.64062,37.80214"
             style="fill:none;stroke:#000000;stroke-width:1;stroke-linecap:butt;stroke-linejoin:miter;stroke-opacity:1" />
          <path
             sodipodi:nodetypes="cc"
             id="path54"
             d="m 490.20866,157.4756 c 1.24032,-2.41488 1.87903,-5.20646 0.9728,-7.9791"
             style="fill:none;stroke:#000000;stroke-width:1;stroke-linecap:butt;stroke-linejoin:miter;stroke-opacity:1" />
          <path
             sodipodi:nodetypes="cc"
             id="path56"
             d="m 499.28385,138.32595 c 3.40466,6.03157 4.07277,10.83238 2.384,17.22776"
             style="fill:none;stroke:#000000;stroke-width:1;stroke-linecap:butt;stroke-linejoin:miter;stroke-opacity:1" />
          <path
             sodipodi:nodetypes="cc"
             id="path58"
             d="m 493.4128,106.65774 c -1.5447,7.82751 1.86362,9.75513 4.34144,14.56576"
             style="fill:none;stroke:#000000;stroke-width:1;stroke-linecap:butt;stroke-linejoin:miter;stroke-opacity:1" />
          <path
             sodipodi:nodetypes="cc"
             id="path60"
             d="m 503.75141,130.11417 c 7.0334,19.07572 5.41274,20.36268 4.45862,27.28349"
             style="fill:none;stroke:#000000;stroke-width:1;stroke-linecap:butt;stroke-linejoin:miter;stroke-opacity:1" />
          <a
             style="fill:none;stroke:#000000"
             id="a73">
            <ellipse
               style="fill:#3fb7e8;fill-opacity:1;stroke:#000000;stroke-width:1.07365"
               id="path62"
               cx="494.58563"
               cy="188.61726"
               rx="18.972109"
               ry="25.38813" />
          </a>
          <ellipse
             ry="3.5611541"
             rx="4.0002003"
             cy="170.59392"
             cx="480.60944"
             id="path78"
             style="fill:none;fill-opacity:1;stroke:#000000;stroke-width:1" />
          <ellipse
             ry="3.9514177"
             rx="3.5611541"
             cy="172.74036"
             cx="509.73288"
             id="path80"
             style="fill:none;fill-opacity:1;stroke:#000000;stroke-width:1" />
          <ellipse
             ry="3.5850148"
             rx="3.3289423"
             cy="208.108"
             cx="508.86691"
             id="path82"
             style="fill:none;fill-opacity:1;stroke:#000000;stroke-width:1.04984" />
          <ellipse
             ry="3.2684567"
             rx="3.7075026"
             cy="207.18112"
             cx="480.90216"
             id="path84"
             style="fill:none;fill-opacity:1;stroke:#000000;stroke-width:1" />
        </g>
        <path
           style="fill:none;stroke:#000000;stroke-width:1;stroke-linecap:butt;stroke-linejoin:miter;stroke-opacity:1"
           d="M 482.36563,105.37113 C 475.35319,121.42917 370.50549,-13.054805 495.63459,-17.952118 597.90151,-21.95465 535.8918,114.55552 506.36685,105.56627"
           id="path104"
           sodipodi:nodetypes="csc" />
      </g>
      <path
         transform="scale(0.26458333)"
         id="path123"
         d="m 1485.7907,902.94737 c -50.356,-10.47485 -81.6366,-34.82247 -92.7249,-72.17369 -11.196,-37.7142 -1.8046,-89.91689 26.9734,-149.9325 11.7671,-24.53988 24.8043,-46.4678 56.5644,-95.13824 39.0369,-59.82197 48.2687,-77.77482 49.3017,-95.87575 0.5288,-9.26531 0.1466,-11.83174 -2.3524,-15.79688 -4.3061,-6.83268 -13.6294,-11.09398 -25.9621,-11.86622 -9.0304,-0.56546 -10.9624,-0.21192 -15.4078,2.81946 -6.7952,4.63369 -10.4435,11.28095 -11.3757,20.72662 -1.5078,15.27825 6.5851,40.62264 18.1782,56.92858 4.4352,6.23826 4.6669,7.08966 2.7322,10.04242 -1.1627,1.77447 -5.5274,8.60277 -9.6994,15.17401 -4.172,6.57124 -8.1297,11.94771 -8.795,11.94771 -2.8152,0 -18.1426,-19.31031 -23.5491,-29.66844 -6.9943,-13.40013 -10.2949,-26.33256 -10.3245,-40.45346 -0.038,-18.02891 7.7753,-39.68157 15.6062,-43.24956 1.9509,-0.8889 3.6301,-2.29418 3.7315,-3.12283 0.1014,-0.82865 0.2673,-2.11027 0.3687,-2.84805 0.2662,-1.9363 6.5345,-6.577 14.197,-10.51061 4.795,-2.46154 9.9745,-3.59065 18.6584,-4.06746 23.4367,-1.28685 44.7248,5.22909 54.9185,16.80968 6.6931,7.60381 9.0238,14.7091 9.0238,27.50991 0,30.2817 -28.9927,85.83778 -80.0959,153.48043 -10.3014,13.63549 -18.7299,25.37797 -18.7299,26.09441 0,3.26536 3.4799,2.55051 13.5159,-2.77654 5.952,-3.15929 16.4637,-7.6432 23.3594,-9.96428 11.0414,-3.71651 14.659,-4.22013 30.3142,-4.22013 17.5657,0 17.9093,0.0656 28.9572,5.52571 24.3231,12.02116 42.0921,39.72481 49.1047,76.55929 7.5929,39.8826 2.3748,83.94047 -13.8579,117.00693 -12.3607,25.17886 -28.7077,41.40459 -49.9204,49.55003 -11.9229,4.57824 -34.7594,5.22355 -52.7104,1.48945 z m 39.5282,-33.75884 c 3.76,-1.66321 9.8454,-5.09428 13.5231,-7.6246 3.6777,-2.53032 6.6867,-3.922 6.6867,-3.0926 0,2.32365 8.1662,6.00879 13.3153,6.00879 7.029,0 13.2349,-6.90866 13.2349,-14.73363 0,-6.72676 -2.0264,-11.5659 -6.0351,-14.41216 -2.4702,-1.75385 -2.3848,-2.37435 1.523,-11.06258 11.5414,-25.66007 13.3087,-58.74462 4.6279,-86.63606 l -2.6022,-8.3611 3.4557,-4.01755 c 2.5279,-2.93892 3.4557,-5.81712 3.4557,-10.72034 0,-5.6939 -0.7772,-7.48002 -5.1634,-11.86629 -4.7206,-4.72058 -5.7644,-5.11216 -12.1689,-4.56507 -6.4865,0.55408 -7.6063,0.11136 -15.1179,-5.97669 -24.1495,-19.57276 -53.4665,-21.00796 -76.1074,-3.72581 -6.2789,4.79282 -6.9792,4.99116 -11.6543,3.30064 -6.4943,-2.34837 -15.608,0.22343 -19.835,5.59725 -4.254,5.40807 -4.0042,13.86809 0.57,19.3042 l 3.5991,4.27734 -3.6214,9.97694 c -10.8187,29.80507 -10.1809,63.30652 1.7499,91.92432 l 3.8318,9.1913 -3.9882,4.7397 c -3.2457,3.85732 -3.8329,5.71601 -3.1541,9.98385 1.5045,9.45859 11.4432,15.15316 21.2134,12.15461 4.6908,-1.43965 5.8251,-1.18377 11.2743,2.54329 14.3304,9.80144 21.9275,12.02784 38.6299,11.32086 7.8809,-0.33357 14.2378,-1.52942 18.7572,-3.52861 z"
         style="fill:#d5d7db;fill-opacity:1;stroke:none;stroke-width:5.57485" />
      <path
         transform="scale(0.26458333)"
         id="path125"
         d="m 1493.2012,648.14646 c 0.471,-1.86434 0.8872,-7.16246 0.9249,-11.77359 l 0.069,-8.38388 13.2625,-19.68313 13.2624,-19.68313 3.1285,6.6857 c 6.6085,14.12291 8.781,29.57615 6.2231,44.26522 l -1.1251,6.46068 -9.061,0.68401 c -4.9835,0.37621 -12.9552,1.61412 -17.7148,2.75093 -4.7596,1.1368 -8.9175,2.06691 -9.2397,2.06691 -0.3222,0 -0.2004,-1.52537 0.2706,-3.38972 z"
         style="fill:#d5d7db;fill-opacity:1;stroke:none;stroke-width:3.94201" />
      <path
         transform="scale(0.26458333)"
         id="path133"
         d="m 1492.9159,539.67543 c -5.111,-7.1419 -11.5716,-20.88036 -14.3856,-30.59094 -3.5629,-12.29464 -3.6748,-26.07804 -0.2658,-32.74943 3.0357,-5.94105 6.7197,-8.53987 12.9596,-9.14231 l 5.0319,-0.4858 -0.3331,10.0528 c -0.4177,12.60474 1.0504,17.44261 9.4592,31.1728 5.7637,9.41105 6.1692,10.46353 5.0223,13.03739 -2.5218,5.65935 -12.7267,23.1382 -13.509,23.1382 -0.444,0 -2.2347,-1.99472 -3.9795,-4.43271 z"
         style="fill:#b3b3b3;fill-opacity:1;stroke:none;stroke-width:3.94201" />
      <path
         transform="scale(0.26458333)"
         id="path135"
         d="m 1549.4486,650.93544 c -1.721,-0.72835 -6.0665,-1.91674 -9.6567,-2.64088 -5.3643,-1.08195 -6.4274,-1.63238 -5.9653,-3.08841 1.6045,-5.05522 2.4275,-19.53681 1.518,-26.70998 -1.3617,-10.74061 -2.62,-15.03232 -7.493,-25.55688 l -4.1926,-9.05483 6.6369,-11.52643 c 3.6502,-6.33953 6.9498,-11.53443 7.3324,-11.54423 0.8994,-0.023 11.5984,32.31589 14.4184,43.58138 3.5908,14.34518 4.4468,24.29698 3.0601,35.57806 -1.5238,12.39552 -1.6578,12.65528 -5.6582,10.9622 z"
         style="fill:#b3b3b3;fill-opacity:1;stroke:none;stroke-width:3.94201" />
      <path
         transform="scale(0.26458333)"
         id="path137"
         d="m 1565.2749,720.50091 c -0.9746,-2.20882 -3.6065,-6.85455 -5.8488,-10.32384 -2.2423,-3.4693 -3.801,-6.58378 -3.4637,-6.92108 0.3373,-0.3373 2.4485,-0.61327 4.6916,-0.61327 4.6475,0 9.5687,3.99722 10.7587,8.73864 0.9589,3.82038 -0.2625,9.42197 -2.4948,11.4422 -1.7567,1.58982 -1.9795,1.44778 -3.643,-2.32265 z"
         style="fill:#b3b3b3;fill-opacity:1;stroke:none;stroke-width:3.94201" />
      <path
         transform="scale(0.26458333)"
         id="path139"
         d="m 1441.0384,713.74979 c -3.864,-3.86403 -3.7288,-10.20711 0.3037,-14.23957 3.4563,-3.45626 8.8453,-4.77893 13.0138,-3.19408 l 2.9267,1.11275 -3.6022,4.43215 c -1.9813,2.43768 -5.0358,6.71026 -6.788,9.49461 l -3.1857,5.06246 z"
         style="fill:#b3b3b3;fill-opacity:1;stroke:none;stroke-width:3.94201" />
      <path
         transform="scale(0.26458333)"
         id="path141"
         d="m 1445.4365,853.29354 c -5.0297,-2.72948 -6.596,-9.16247 -3.3568,-13.78697 2.1982,-3.13841 3.8318,-2.91514 6.0416,0.82571 1.0214,1.72907 3.7589,5.34111 6.0833,8.02676 3.8068,4.39839 4.0329,4.95894 2.279,5.64835 -3.1748,1.24789 -8.0077,0.9356 -11.0471,-0.71385 z"
         style="fill:#b3b3b3;fill-opacity:1;stroke:none;stroke-width:3.94201" />
      <path
         transform="scale(0.26458333)"
         id="path143"
         d="m 1550.969,856.43697 c -1.7532,-1.86619 -2.1943,-3.05828 -1.4855,-4.01471 5.6657,-7.64553 11.5009,-14.171 12.4068,-13.87432 1.9277,0.63133 5.8106,7.17883 5.8106,9.79802 0,3.33658 -2.6675,8.339 -5.1572,9.67145 -3.7034,1.98201 -8.8937,1.27331 -11.5747,-1.58044 z"
         style="fill:#b3b3b3;fill-opacity:1;stroke:none;stroke-width:3.94201" />
      <path
         transform="scale(0.26458333)"
         id="path145"
         d="m 1556.7321,726.80701 c -1.8587,-0.73725 -4.6098,-3.50954 -5.8267,-5.87161 -1.8931,-3.67427 -1.7757,-9.75956 0.2415,-12.51816 0.633,-0.86571 0.9545,-0.56178 3.6551,3.45532 3.1676,4.71183 8.1615,13.78957 8.178,14.86584 0.012,0.79209 -4.3045,0.83949 -6.2479,0.0686 z"
         style="fill:#b3b3b3;fill-opacity:1;stroke:none;stroke-width:1.97101" />
      <path
         transform="scale(0.26458333)"
         id="path147"
         d="m 1449.5875,715.86276 c 3.9181,-6.25775 10.7843,-15.06876 11.7425,-15.06876 1.7012,0 2.7425,6.50611 1.5442,9.64767 -1.5094,3.95723 -6.211,7.03003 -11.3928,7.44598 l -3.3291,0.26722 z"
         style="fill:#b3b3b3;fill-opacity:1;stroke:none;stroke-width:1.97101" />
      <path
         transform="scale(0.26458333)"
         id="path149"
         d="m 1459.1023,846.73347 c -1.5926,-1.82077 -4.2394,-5.18788 -5.8817,-7.48246 -3.2782,-4.58011 -3.2151,-4.83696 1.0311,-4.20019 3.1847,0.47757 6.7783,2.93337 8.1088,5.54143 1.2815,2.51192 1.4439,6.00395 0.3741,8.04567 l -0.7367,1.40604 z"
         style="fill:#b3b3b3;fill-opacity:1;stroke:none;stroke-width:1.97101" />
      <path
         style="fill:none;stroke:#000000;stroke-width:0.285644px;stroke-linecap:butt;stroke-linejoin:miter;stroke-opacity:1"
         d="m 381.11751,192.55181 c 1.67807,4.26143 2.83259,8.5056 3.76886,12.22277 -0.87531,3.60324 -2.53494,7.20649 -4.31848,10.80973"
         id="path191"
         sodipodi:nodetypes="ccc" />
      <path
         style="fill:none;stroke:#000000;stroke-width:0.264583px;stroke-linecap:butt;stroke-linejoin:miter;stroke-opacity:1"
         d="m 385.03926,204.5511 c 0.51314,-1.4372 1.00031,-2.94367 1.24182,-5.10523 0.89103,0.6669 1.76093,1.3338 1.9317,2.0007 -0.046,0.96101 -0.092,2.03208 -0.13798,2.82857 -0.68732,0.896 -1.01771,1.67303 -1.44878,2.48362 -0.45172,-0.58149 -0.49024,-0.66876 -1.58676,-2.20766 z"
         id="path193"
         sodipodi:nodetypes="cccccc" />
      <path
         style="fill:none;stroke:#000000;stroke-width:0.264583px;stroke-linecap:butt;stroke-linejoin:miter;stroke-opacity:1"
         d="m 392.00719,202.96434 c -0.0154,-1.28644 1.60676,-2.86186 3.10454,-4.41533 0.88712,2.78828 0.94199,5.34959 0.82786,7.8648 -1.5348,-1.01542 -2.85746,-2.15813 -3.9324,-3.44947 z"
         id="path195"
         sodipodi:nodetypes="cccc" />
      <path
         style="fill:none;stroke:#000000;stroke-width:0.264583px;stroke-linecap:butt;stroke-linejoin:miter;stroke-opacity:1"
         d="m 395.2881,198.40019 c 3.24097,1.17953 4.57315,3.03276 6.34178,4.73194 -1.76481,0.85519 -3.7151,2.26683 -5.65881,3.65872"
         id="path201"
         sodipodi:nodetypes="ccc" />
      <path
         style="fill:none;stroke:#000000;stroke-width:0.264583px;stroke-linecap:butt;stroke-linejoin:miter;stroke-opacity:1"
         d="m 401.77624,202.98578 c 1.50163,-1.58418 3.04082,-3.43124 4.63437,-5.65882 2.25365,3.67523 0.84778,6.77567 0.78052,12.04939 -1.72251,-2.07522 -3.42511,-4.13717 -5.41489,-6.39057 z"
         id="path203"
         sodipodi:nodetypes="cccc" />
      <path
         style="fill:none;stroke:#000000;stroke-width:0.264583px;stroke-linecap:butt;stroke-linejoin:miter;stroke-opacity:1"
         d="m 409.87421,207.2299 c 0.82638,-3.4192 1.87766,-6.50104 2.19522,-10.68346 -0.71548,-0.84275 -1.43097,-1.25863 -2.14645,-1.36593 -1.06791,1.1468 -1.56633,2.21225 -2.0001,3.26846 0.23246,3.34496 1.21266,5.94218 1.95133,8.78093 z"
         id="path205"
         sodipodi:nodetypes="ccccc" />
      <path
         style="fill:none;stroke:#000000;stroke-width:0.264583px;stroke-linecap:butt;stroke-linejoin:miter;stroke-opacity:1"
         d="m 412.06943,196.54644 c 1.08513,0.80549 2.36881,1.21389 3.12211,2.68306 0.80459,2.82659 -0.008,5.114 -0.19513,7.61013 l -3.65873,2.19524 c -0.58837,-0.47855 -1.18467,-0.94324 -1.4147,-2.04889"
         id="path207"
         sodipodi:nodetypes="ccccc" />
      <path
         style="fill:none;stroke:#000000;stroke-width:0.264583px;stroke-linecap:butt;stroke-linejoin:miter;stroke-opacity:1"
         d="m 396.99551,180.00902 c -1.3055,1.99465 -1.8288,3.07673 -2.63429,4.48803 2.94226,-1.5157 5.5547,-1.48519 7.56137,-1.65862 l -3.31724,4.14655 -2.39036,-1.4147 c 0.90178,-0.6064 3.8914,-1.79921 3.9777,-2.40561"
         id="path209"
         sodipodi:nodetypes="cccccc" />
      <path
         style="fill:none;stroke:#000000;stroke-width:0.264583px;stroke-linecap:butt;stroke-linejoin:miter;stroke-opacity:1"
         d="m 401.62988,180.30172 c -0.70614,2.32277 1.48741,3.85472 -2.14644,6.97596 0.2769,1.06914 1.15003,1.06507 1.85375,1.36592 0.72882,-0.46006 1.40861,-0.99979 1.41471,-2.63427 0.15192,-2.03402 -0.57835,-3.84749 -1.12202,-5.70761 z"
         id="path211"
         sodipodi:nodetypes="ccccc" />
      <path
         style="fill:none;stroke:#000000;stroke-width:0.264583px;stroke-linecap:butt;stroke-linejoin:miter;stroke-opacity:1"
         d="m 406.65452,183.08235 c -1.31395,0.20162 -1.87424,0.65445 -2.68306,1.02444 -0.0674,2.60258 0.78593,4.18211 1.51228,5.90273"
         id="path213"
         sodipodi:nodetypes="ccc" />
      <path
         style="fill:none;stroke:#000000;stroke-width:0.264583px;stroke-linecap:butt;stroke-linejoin:miter;stroke-opacity:1"
         d="m 407.58141,184.25314 c -1.99895,1.86466 -1.70602,3.85664 -2.19524,5.80517 1.07735,-0.57325 2.14532,-1.13713 2.68307,-1.17079 -0.18293,-1.42792 0.0562,-2.75033 0.97566,-3.90264 z"
         id="path215"
         sodipodi:nodetypes="ccccc" />
      <path
         style="fill:none;stroke:#000000;stroke-width:0.264583px;stroke-linecap:butt;stroke-linejoin:miter;stroke-opacity:1"
         d="m 388.60484,191.52179 c -1.41786,0.41398 -3.41736,0.374 -1.21958,3.60994 2.56223,3.52389 5.06375,3.2035 7.70771,2.43915 -2.11045,-3.07907 -4.12128,-8.18366 -6.48813,-6.04909 z"
         id="path221"
         sodipodi:nodetypes="cccc" />
      <path
         style="fill:none;stroke:#000000;stroke-width:0.264583px;stroke-linecap:butt;stroke-linejoin:miter;stroke-opacity:1"
         d="m 391.48303,185.32636 c 0,0 -0.43905,2.87819 -0.2439,3.07333 0.19513,0.19513 2.24401,-0.92688 2.24401,-0.92688 -0.6091,-0.83069 -1.3005,-1.49678 -2.00011,-2.14645 z"
         id="path223"
         sodipodi:nodetypes="cscc" />
      <path
         style="fill:none;stroke:#000000;stroke-width:0.264583px;stroke-linecap:butt;stroke-linejoin:miter;stroke-opacity:1"
         d="m 392.53605,188.04984 c 0.23439,2.23556 0.46878,4.68794 0.70317,6.59406 0.99751,1.02393 2.08697,1.77201 3.26845,2.24402 0.12318,-1.73233 -0.0979,-3.08598 0.8781,-5.75639 -1.46281,-0.87347 -3.2238,-2.04512 -4.84972,-3.08169 z"
         id="path225"
         sodipodi:nodetypes="ccccc" />
      <path
         style="fill:none;stroke:#000000;stroke-width:0.264583px;stroke-linecap:butt;stroke-linejoin:miter;stroke-opacity:1"
         d="m 387.48284,214.84004 c 0.87289,1.37631 1.60838,3.02743 2.73183,3.90263 3.15609,0.22337 4.62283,1.98251 6.8784,3.02454 -2.55081,1.96647 -5.38346,1.96008 -8.09797,2.78063 -1.02224,-2.84732 -1.19014,-6.33539 -1.51226,-9.7078 z"
         id="path227"
         sodipodi:nodetypes="ccccc" />
      <path
         style="fill:none;stroke:#000000;stroke-width:0.264583px;stroke-linecap:butt;stroke-linejoin:miter;stroke-opacity:1"
         d="m 396.41012,227.71873 c 0,0.24129 1.10918,-5.0202 1.60983,-5.26856 0.71645,-0.35542 4.01769,2.14257 3.56116,2.24402 1.22045,3.40996 -3.28956,2.14507 -5.17099,3.02454 z"
         id="path231"
         sodipodi:nodetypes="cscc" />
      <path
         style="fill:none;stroke:#000000;stroke-width:0.264583px;stroke-linecap:butt;stroke-linejoin:miter;stroke-opacity:1"
         d="m 401.58111,221.5233 c -1.00179,0.48684 -0.89038,1.085 -1.02444,1.65862 l 2.00009,0.48783 c 0.0666,-0.71548 -0.30705,-1.43097 -0.97565,-2.14645 z"
         id="path233"
         sodipodi:nodetypes="cccc" />
      <path
         style="fill:none;stroke:#000000;stroke-width:0.264583px;stroke-linecap:butt;stroke-linejoin:miter;stroke-opacity:1"
         d="m 403.87391,223.18192 c -1.87735,1.78608 -2.03048,3.3069 -2.82943,4.92707 l 6.3418,-3.51237 z"
         id="path235"
         sodipodi:nodetypes="cccc" />
      <path
         style="fill:none;stroke:#000000;stroke-width:0.264583px;stroke-linecap:butt;stroke-linejoin:miter;stroke-opacity:1"
         d="m 407.92288,211.86428 c 0.0986,1.9077 0.0857,3.25796 0.0976,4.73194 l 2.24403,-4.43925 c -0.62086,-0.23444 -1.108,-0.58349 -2.34163,-0.29269 z"
         id="path237"
         sodipodi:nodetypes="cccc" />
      <path
         style="fill:none;stroke:#000000;stroke-width:0.264583px;stroke-linecap:butt;stroke-linejoin:miter;stroke-opacity:1"
         d="m 410.41081,212.05941 1.65862,2.68306 c -1.09512,0.60166 -2.60137,1.20331 -4.04899,1.80497 l 1.79083,-2.47325 z"
         id="path239"
         sodipodi:nodetypes="ccccc" />
      <path
         style="fill:#0079b4;fill-opacity:1;stroke:none;stroke-width:1.39371"
         d="m 1807.9036,748.51182 c -2.71,-11.07459 -3.5427,-18.07318 -3.5427,-29.7768 0,-10.93234 0.9337,-19.14489 3.2911,-28.9471 0.9728,-4.04472 3.8616,-13.40514 4.0722,-13.19455 0.067,0.0669 0.9673,2.52374 2.0009,5.45964 2.4352,6.91757 5.6667,17.67101 8.3388,27.74927 2.4602,9.27921 2.5122,7.88272 -0.6453,17.34708 -2.5673,7.69548 -11.0489,27.51952 -11.7804,27.5345 -0.1227,0.003 -0.9033,-2.77491 -1.7346,-6.17204 z"
         id="path245"
         transform="matrix(0.26458333,0,0,0.26458333,-97.95613,14.830012)" />
      <path
         style="fill:#c0f4fc;fill-opacity:0.933333;stroke:none;stroke-width:1.39371"
         d="m 1830.6722,723.24066 c -0.3172,-0.44996 -1.4357,-2.06265 -2.4855,-3.58376 l -1.9087,-2.76564 1.2756,-3.91787 c 0.7016,-2.15483 1.7021,-6.05439 2.2234,-8.6657 0.5213,-2.6113 0.9868,-4.88455 1.0346,-5.05166 0.1337,-0.46765 5.0133,4.13959 5.5449,5.23541 0.3512,0.72392 0.4062,2.2431 0.2177,6.01604 l -0.2521,5.04755 -1.4697,2.3275 c -0.8084,1.28013 -1.9111,3.19868 -2.4506,4.26346 -0.5394,1.06477 -1.0195,1.93073 -1.0668,1.92436 -0.047,-0.006 -0.3455,-0.37974 -0.6628,-0.82969 z"
         id="path247"
         transform="matrix(0.26458333,0,0,0.26458333,-97.95613,14.830012)" />
      <path
         style="fill:#0079b4;fill-opacity:1;stroke:none;stroke-width:0.696856"
         d="m 1850.1759,691.79226 c -5.2237,-0.82508 -9.7242,-3.67463 -13.7932,-8.73319 -3.1013,-3.85552 -5.121,-7.76165 -5.121,-9.90383 0,-2.1258 1.2291,-3.05489 5.5042,-4.16042 1.7691,-0.45749 2.67,-0.78664 3.0641,-1.11951 0.9933,-0.83891 2.297,-1.33239 3.525,-1.33436 1.9386,-0.003 4.1005,1.36224 6.4799,4.09246 1.2162,1.39556 5.013,6.92994 5.8497,8.52687 0.2632,0.50228 0.5888,1.04158 0.7235,1.19845 0.1348,0.15687 0.9768,1.52976 1.8711,3.05087 0.8943,1.5211 2.1954,3.67094 2.8912,4.77741 0.6959,1.10647 1.1998,2.07194 1.1198,2.1455 -0.1573,0.14465 -3.5128,0.95165 -5.308,1.27657 -1.5573,0.28185 -5.5084,0.3882 -6.8063,0.18318 z"
         id="path249"
         transform="matrix(0.26458333,0,0,0.26458333,-97.95613,14.830012)" />
      <path
         style="fill:#0079b4;fill-opacity:1;stroke:none;stroke-width:0.985503"
         d="m 1866.1452,686.09303 c -2.7866,-1.45342 -5.3524,-3.30581 -7.4567,-5.3834 -1.7058,-1.68426 -1.7293,-1.72661 -1.8858,-3.40036 -0.087,-0.93217 -0.6219,-6.0931 -1.1885,-11.46871 -0.5665,-5.37562 -1.0066,-9.79727 -0.978,-9.82589 0.029,-0.0286 1.3994,0.82682 3.0463,1.90096 1.6468,1.07415 5.3409,3.42984 8.2091,5.23487 2.8682,1.80503 5.2578,3.31772 5.3101,3.36153 0.052,0.0438 -0.3286,1.58175 -0.8466,3.41765 -1.2255,4.34313 -1.7081,7.56442 -1.9333,12.904 l -0.1835,4.35105 z"
         id="path251"
         transform="matrix(0.26458333,0,0,0.26458333,-97.95613,14.830012)" />
      <path
         style="fill:#0079b4;fill-opacity:1;stroke:none;stroke-width:0.985503"
         d="m 1849.4393,653.12492 c 0.2672,-3.44776 0.7195,-6.94995 0.9272,-7.17953 0.1018,-0.1125 1.0551,0.70886 2.1186,1.82523 2.1941,2.30325 4.0123,4.47538 3.8609,4.6125 -0.3574,0.32364 -2.8406,1.43056 -2.8439,1.26769 0,-0.10997 -0.09,-0.0665 -0.1956,0.0967 -0.2045,0.31679 -3.2301,1.65898 -3.7396,1.65898 -0.2224,0 -0.2568,-0.61498 -0.1276,-2.28154 z"
         id="path253"
         transform="matrix(0.26458333,0,0,0.26458333,-97.95613,14.830012)" />
      <path
         style="fill:#0079b4;fill-opacity:1;stroke:none;stroke-width:0.985503"
         d="m 1849.4393,653.12492 c 0.2672,-3.44776 0.7195,-6.94995 0.9272,-7.17953 0.1018,-0.1125 1.0551,0.70886 2.1186,1.82523 2.1941,2.30325 4.0123,4.47538 3.8609,4.6125 -0.3574,0.32364 -2.8406,1.43056 -2.8439,1.26769 0,-0.10997 -0.09,-0.0665 -0.1956,0.0967 -0.2045,0.31679 -3.2301,1.65898 -3.7396,1.65898 -0.2224,0 -0.2568,-0.61498 -0.1276,-2.28154 z"
         id="path255"
         transform="matrix(0.26458333,0,0,0.26458333,-97.95613,14.830012)" />
      <path
         style="fill:#0079b4;fill-opacity:1;stroke:none;stroke-width:0.985503"
         d="m 1862.3715,639.64804 c 0,-0.20769 4.428,-7.91429 6.3387,-11.03201 1.9506,-3.18289 2.1887,-3.46722 3.0386,-3.62828 2.0342,-0.38547 13.8899,0.94728 15.0505,1.69189 0.1594,0.10227 0.3257,1.77269 0.4004,4.02098 0.1269,3.82424 0.1244,3.84603 -0.4444,3.84603 -1.554,0 -9.2123,0.8481 -11.7834,1.30492 -3.2358,0.57495 -7.8232,1.90164 -10.71,3.09741 -1.0397,0.43067 -1.8904,0.74525 -1.8904,0.69906 z"
         id="path257"
         transform="matrix(0.26458333,0,0,0.26458333,-97.95613,14.830012)" />
      <path
         style="fill:#b3ecf8;fill-opacity:0.933333;stroke:none;stroke-width:0.985503"
         d="m 1872.8682,647.64276 c -2.0427,-1.20983 -3.6467,-2.30861 -3.5644,-2.44174 0.082,-0.13313 1.9296,-1.13187 4.1051,-2.21943 6.8346,-3.41657 9.8224,-5.34826 9.8224,-6.35044 0,-0.56246 1.4343,-0.87667 3.353,-0.73457 l 1.1367,0.0842 -5.5284,6.90982 c -3.0406,3.80039 -5.5468,6.91927 -5.5694,6.93083 -0.023,0.0116 -1.7123,-0.96883 -3.755,-2.17865 z"
         id="path259"
         transform="matrix(0.26458333,0,0,0.26458333,-97.95613,14.830012)" />
      <path
         style="fill:#b3ecf8;fill-opacity:0.933333;stroke:none;stroke-width:0.985503"
         d="m 1884.9589,655.52361 c -2.1262,-0.74286 -3.3543,-1.61602 -3.8057,-2.70561 -0.3245,-0.78359 -0.3028,-0.82121 1.5194,-2.62543 1.0168,-1.00674 2.313,-2.44553 2.8806,-3.19729 2.0809,-2.75647 3.4062,-6.49675 3.4126,-9.63105 0,-0.93341 1.0561,-2.63111 1.4129,-2.27538 0.4704,0.46905 1.2471,5.4652 1.3785,8.8679 0.171,4.42593 -0.1494,6.79867 -1.1715,8.67668 -0.6716,1.23385 -3.0347,3.57498 -3.569,3.53587 -0.1459,-0.0107 -1.0719,-0.30124 -2.0578,-0.64569 z"
         id="path261"
         transform="matrix(0.26458333,0,0,0.26458333,-97.95613,14.830012)" />
      <path
         style="fill:#0079b4;fill-opacity:1;stroke:none;stroke-width:0.985503"
         d="m 1900.7262,655.6552 c -1.5822,-4.00346 -2.5405,-7.76966 -2.8889,-11.35308 -0.4037,-4.1517 -0.4889,-3.84826 1.3648,-4.86525 2.1232,-1.16484 4.8581,-2.24909 6.5887,-2.61208 l 1.3813,-0.28973 1.8076,1.46053 1.8077,1.46052 -1.9101,1.97948 c -3.2934,3.41296 -5.0369,7.78997 -6.1102,15.3398 -0.1784,1.25485 -0.4081,2.28154 -0.5105,2.28154 -0.1023,0 -0.791,-1.53078 -1.5304,-3.40173 z"
         id="path263"
         transform="matrix(0.26458333,0,0,0.26458333,-97.95613,14.830012)" />
      <path
         style="fill:#0079b4;fill-opacity:1;stroke:none;stroke-width:0.985503"
         d="m 1888.621,633.69922 c -0.078,-0.32267 -0.2064,-1.76004 -0.2844,-3.19416 l -0.1418,-2.60747 0.6194,1.82523 c 0.3406,1.00388 0.8015,2.44125 1.0243,3.19416 l 0.4049,1.36892 h -0.7399 c -0.5513,0 -0.7763,-0.14959 -0.8825,-0.58668 z"
         id="path265"
         transform="matrix(0.26458333,0,0,0.26458333,-97.95613,14.830012)" />
      <path
         style="fill:#b3ecf8;fill-opacity:0.933333;stroke:none;stroke-width:0.985503"
         d="m 1903.4226,660.39975 c 0.079,-0.38002 0.3845,-2.21632 0.6789,-4.08067 0.6693,-4.238 1.1767,-6.34749 2.0069,-8.34392 0.7168,-1.72355 2.408,-4.39525 3.7796,-5.97061 l 0.885,-1.01639 2.1348,1.11064 c 1.1741,0.61085 2.1347,1.20068 2.1347,1.31074 0,0.11005 -0.4149,0.889 -0.922,1.73099 -1.6129,2.67775 -2.5793,6.81352 -2.4183,10.3487 l 0.081,1.77763 -2.2164,0.83962 c -1.2189,0.46179 -3.1324,1.32215 -4.2521,1.91191 l -2.0358,1.0723 z"
         id="path267"
         transform="matrix(0.26458333,0,0,0.26458333,-97.95613,14.830012)" />
      <path
         style="fill:#0079b4;fill-opacity:1;stroke:none;stroke-width:0.985503"
         d="m 1904.3519,728.48061 c -2.2229,-2.68243 -6.3883,-7.61895 -9.2565,-10.97006 -2.8683,-3.3511 -5.2498,-6.18621 -5.2924,-6.30024 -0.043,-0.11403 0.7205,-1.07091 1.6956,-2.12638 3.9743,-4.30172 10.5975,-12.40119 13.3523,-16.32842 0.6276,-0.89464 1.237,-1.62662 1.3542,-1.62662 0.3067,0 1.9111,3.44142 2.6863,5.76215 1.2246,3.66607 1.5258,6.50697 1.3658,12.88131 -0.079,3.15505 -0.3834,7.96584 -0.6762,10.69066 -0.2927,2.72481 -0.61,6.74358 -0.7051,8.9306 -0.095,2.18703 -0.2426,3.97365 -0.3277,3.97027 -0.085,-0.003 -1.9734,-2.20084 -4.1963,-4.88327 z"
         id="path269"
         transform="matrix(0.26458333,0,0,0.26458333,-97.95613,14.830012)" />
      <path
         style="fill:#0079b4;fill-opacity:1;stroke:none;stroke-width:0.985503"
         d="m 1904.3519,728.48061 c -2.2229,-2.68243 -6.3883,-7.61895 -9.2565,-10.97006 -2.8683,-3.3511 -5.2498,-6.18621 -5.2924,-6.30024 -0.043,-0.11403 0.7205,-1.07091 1.6956,-2.12638 3.9743,-4.30172 10.5975,-12.40119 13.3523,-16.32842 0.6276,-0.89464 1.237,-1.62662 1.3542,-1.62662 0.3067,0 1.9111,3.44142 2.6863,5.76215 1.2246,3.66607 1.5258,6.50697 1.3658,12.88131 -0.079,3.15505 -0.3834,7.96584 -0.6762,10.69066 -0.2927,2.72481 -0.61,6.74358 -0.7051,8.9306 -0.095,2.18703 -0.2426,3.97365 -0.3277,3.97027 -0.085,-0.003 -1.9734,-2.20084 -4.1963,-4.88327 z"
         id="path271"
         transform="matrix(0.26458333,0,0,0.26458333,-97.95613,14.830012)" />
      <path
         style="fill:#0079b4;fill-opacity:1;stroke:none;stroke-width:0.985503"
         d="m 1863.6753,721.20427 c -1.0756,-0.80576 -2.839,-2.19993 -3.9186,-3.09815 -2.3853,-1.98457 -7.2936,-7.03705 -7.2936,-7.50784 0,-1.06022 0.9902,-3.31824 2.3331,-5.32025 1.3227,-1.97182 8.2797,-9.8812 8.4988,-9.66213 0.2334,0.23347 1.4836,5.78809 1.9301,8.57571 1.1001,6.86813 1.4597,18.50979 0.5709,18.48272 -0.091,-0.003 -1.0452,-0.66429 -2.1207,-1.47006 z"
         id="path275"
         transform="matrix(0.26458333,0,0,0.26458333,-97.95613,14.830012)" />
      <path
         style="fill:#0079b4;fill-opacity:1;stroke:none;stroke-width:0.985503"
         d="m 1923.4255,731.92146 c -1.3259,-1.19212 -3.168,-4.32145 -3.168,-5.38185 0,-0.27632 0.9948,-4.33799 2.2107,-9.02595 3.2774,-12.63664 4.9325,-20.89886 5.5075,-27.49294 0.097,-1.11144 0.2193,-2.0208 0.2721,-2.0208 0.053,0 1.5913,0.97876 3.419,2.17502 3.4661,2.26872 5.8611,4.49858 6.7782,6.31091 1.5864,3.13478 2.0622,10.58937 1.1226,17.58884 -0.2984,2.22287 -0.7465,5.66557 -0.9957,7.65043 l -0.4532,3.60885 -6.4712,3.88765 c -3.5592,2.13821 -6.5679,3.88765 -6.686,3.88765 -0.1182,0 -0.8094,-0.53452 -1.536,-1.18781 z"
         id="path277"
         transform="matrix(0.26458333,0,0,0.26458333,-97.95613,14.830012)" />
      <path
         style="fill:#c0f4fc;fill-opacity:0.933333;stroke:none;stroke-width:0.985503"
         d="m 1923.4255,731.92146 c -1.3259,-1.19212 -3.168,-4.32145 -3.168,-5.38185 0,-0.27632 0.9948,-4.33799 2.2107,-9.02595 3.2774,-12.63664 4.9325,-20.89886 5.5075,-27.49294 0.097,-1.11144 0.2193,-2.0208 0.2721,-2.0208 0.053,0 1.5913,0.97876 3.419,2.17502 3.4661,2.26872 5.8611,4.49858 6.7782,6.31091 1.5864,3.13478 2.0622,10.58937 1.1226,17.58884 -0.2984,2.22287 -0.7465,5.66557 -0.9957,7.65043 l -0.4532,3.60885 -6.4712,3.88765 c -3.5592,2.13821 -6.5679,3.88765 -6.686,3.88765 -0.1182,0 -0.8094,-0.53452 -1.536,-1.18781 z"
         id="path279"
         transform="matrix(0.26458333,0,0,0.26458333,-97.95613,14.830012)" />
      <path
         style="fill:#0079b4;fill-opacity:1;stroke:none;stroke-width:0.985503"
         d="m 1917.6969,718.92178 c -3.0146,-10.69791 -4.4974,-17.63122 -4.9051,-22.93568 l -0.1632,-2.12381 1.3194,-2.73563 c 1.4029,-2.90866 3.3189,-5.92621 4.9342,-7.7708 l 0.9842,-1.12397 1.1622,0.41442 c 1.6166,0.57641 3.3103,1.71361 4.7811,3.21012 l 1.2498,1.27168 -0.4117,3.63007 c -0.8505,7.49762 -2.2014,14.13989 -5.4164,26.63115 l -1.8934,7.35624 z"
         id="path281"
         transform="matrix(0.26458333,0,0,0.26458333,-97.95613,14.830012)" />
      <path
         style="fill:#0079b4;fill-opacity:1;stroke:none;stroke-width:0.348428"
         d="m 1912.8398,755.576 c -0.032,-2.57346 -0.1062,-5.95906 -0.1659,-7.52355 -0.088,-2.30983 -0.086,-2.85829 0.01,-2.91779 0.4927,-0.30456 3.2327,-0.36218 4.4476,-0.0936 0.6959,0.15388 2.4553,0.78171 2.817,1.00525 0.089,0.0551 -0.7864,1.86389 -3.4453,7.11774 -1.9606,3.87414 -3.574,7.05447 -3.5854,7.0674 -0.011,0.0129 -0.046,-2.08204 -0.078,-4.6555 z"
         id="path283"
         transform="matrix(0.26458333,0,0,0.26458333,-97.95613,14.830012)" />
      <path
         style="fill:#0079b4;fill-opacity:1;stroke:none;stroke-width:0.492752"
         d="m 1840.746,791.93602 c 0,-0.026 -0.2874,-1.00294 -0.6386,-2.171 -1.461,-4.85909 -2.5042,-10.51108 -3.3275,-18.02935 -0.4254,-3.88385 -1.2675,-13.12743 -1.2019,-13.19297 0.028,-0.0278 0.5371,0.78779 1.1316,1.81253 3.166,5.45653 4.5445,7.43088 6.6274,9.49193 l 1.3854,1.37084 1.5645,0.16602 c 3.2964,0.34981 6.698,1.33116 9.8229,2.83385 2.2142,1.06476 3.0435,1.54112 7.256,4.16806 1.8644,1.16259 4.0776,2.48862 4.9183,2.94673 0.8407,0.4581 1.53,0.87865 1.5319,0.93456 0.01,0.15539 -2.3719,1.66158 -3.9079,2.47621 -3.9939,2.11822 -7.5897,3.24712 -16.2967,5.11639 -4.4605,0.95761 -6.9393,1.53947 -8.2461,1.9357 -0.3406,0.10327 -0.6193,0.16649 -0.6193,0.1405 z"
         id="path285"
         transform="matrix(0.26458333,0,0,0.26458333,-97.95613,14.830012)" />
      <path
         style="fill:#0079b4;fill-opacity:1;stroke:none;stroke-width:0.492752"
         d="m 1869.3521,803.50057 c 0.035,-0.11794 0.6198,-2.44383 1.3001,-5.16864 2.1725,-8.70162 3.4512,-12.63877 4.2693,-13.14576 0.5824,-0.36091 3.4288,0.83387 6.2012,2.60294 2.8,1.78665 6.4201,4.69748 6.2282,5.0079 -0.036,0.059 0.022,0.33109 0.1307,0.60471 0.6799,1.71768 0.8973,3.83111 0.5236,5.08944 -0.2608,0.87824 -1.1794,1.89318 -2.1628,2.3896 -1.728,0.87226 -3.7942,1.25289 -9.1784,1.69083 -3.3511,0.27256 -5.8704,0.62503 -6.8295,0.95547 -0.4978,0.1715 -0.54,0.16919 -0.4824,-0.0265 z"
         id="path287"
         transform="matrix(0.26458333,0,0,0.26458333,-97.95613,14.830012)" />
      <path
         style="fill:#0079b4;fill-opacity:1;stroke:none;stroke-width:0.492752"
         d="m 1887.5569,803.9861 c 3.46,-8.77799 4.9405,-11.41911 8.3666,-14.92526 l 0.906,-0.92716 5.8555,2.35843 c 3.2204,1.29714 5.8533,2.38904 5.8507,2.42646 0,0.0633 -20.8359,11.61784 -21.122,11.71568 -0.071,0.0244 -0.01,-0.26727 0.1432,-0.64815 z"
         id="path293"
         transform="matrix(0.26458333,0,0,0.26458333,-97.95613,14.830012)" />
      <path
         style="fill:#c0f4fc;fill-opacity:0.933333;stroke:none;stroke-width:0.492752"
         d="m 1887.8109,787.80748 c -1.6133,-0.39579 -2.9526,-0.73652 -2.976,-0.75719 -0.1174,-0.10333 0.424,-2.39523 0.6894,-2.91914 0.33,-0.65105 1.35,-1.68125 1.995,-2.01477 l 0.4012,-0.20746 0.5124,0.61723 c 1.5624,1.88199 2.4184,3.61393 2.7052,5.47365 0.075,0.48456 0.055,0.55241 -0.1541,0.54069 -0.1318,-0.007 -1.5597,-0.33723 -3.1731,-0.73301 z"
         id="path300"
         transform="matrix(0.26458333,0,0,0.26458333,-97.95613,14.830012)" />
      <path
         style="fill:#c0f4fc;fill-opacity:1;stroke:none;stroke-width:0.985503"
         d="m 1867.441,719.92261 c 0.2358,-7.49009 -0.6203,-15.7833 -2.2908,-22.19348 -0.4265,-1.6367 -0.7318,-3.01954 -0.6783,-3.07299 0.1881,-0.18811 4.8616,1.97321 6.9398,3.20936 3.587,2.13373 6.4836,4.48939 11.1699,9.08412 5.1325,5.03221 4.958,4.36235 1.6121,6.18891 -2.3862,1.30259 -8.3346,5.17971 -12.9071,8.41264 -1.8643,1.31818 -3.5232,2.47533 -3.6865,2.57144 -0.2192,0.1291 -0.2608,-0.9682 -0.1591,-4.2 z"
         id="path306"
         transform="matrix(0.26458333,0,0,0.26458333,-97.95613,14.830012)" />
      <path
         style="fill:#c0f4fc;fill-opacity:1;stroke:none;stroke-width:0.348428"
         d="m 1914.0847,760.96919 c 0.037,-0.0634 1.2942,-1.81242 2.7941,-3.88676 l 2.7271,-3.77152 0.9774,-3.27547 c 0.9424,-3.15863 0.9825,-3.26743 1.1223,-3.0504 0.6551,1.01648 5.1371,8.32574 5.1371,8.37749 0,0.0885 -3.0109,1.54788 -5.2547,2.54694 -1.7008,0.75727 -7.432,3.17495 -7.5263,3.17495 -0.024,0 -0.014,-0.0519 0.023,-0.11523 z"
         id="path314"
         transform="matrix(0.26458333,0,0,0.26458333,-97.95613,14.830012)" />
      <path
         style="fill:#c0f4fc;fill-opacity:1;stroke:none;stroke-width:0.348428"
         d="m 1916.5176,755.60545 c 0,-0.12894 2.8853,-5.77124 2.9289,-5.72762 0.023,0.0224 -0.1531,0.68999 -0.3902,1.48347 l -0.4309,1.4427 -0.9739,1.35152 c -1.0562,1.46574 -1.1339,1.56508 -1.1339,1.44993 z"
         id="path316"
         transform="matrix(0.26458333,0,0,0.26458333,-97.95613,14.830012)" />
    </g>
  </g>
  <g
     inkscape:groupmode="layer"
     id="layer4"
     inkscape:label="Jewels">
    <path
       style="fill:#006680;fill-opacity:1;stroke:none;stroke-width:0.348428"
       d="m 1604.9463,813.53678 c -0.3203,-0.42549 -10.5236,-12.64605 -12.5116,-14.98513 -4.5011,-5.29612 -8.0916,-9.4032 -8.2205,-9.4032 -0.2189,0 -3.1397,1.54435 -5.0185,2.65352 -3.7296,2.20186 -9.0393,5.774 -15.3263,10.3109 l -1.3155,0.9493 -0.2427,-0.3667 c -0.2305,-0.34831 -0.2347,-0.37546 -0.085,-0.5413 0.1524,-0.16841 0.1128,-0.20487 -1.1162,-1.028 -2.407,-1.61208 -5.2116,-3.7638 -7.4534,-5.71839 -1.5686,-1.36768 -4.5414,-4.33829 -5.8459,-5.84163 l -1.0374,-1.19559 0.065,-0.69094 c 0.2365,-2.52318 1.7316,-5.27499 4.8887,-8.99732 1.294,-1.52572 1.8062,-2.08154 4.8225,-5.23341 1.7723,-1.85208 2.6504,-2.7081 2.6949,-2.62736 0.036,0.0659 0.2763,0.82499 0.5334,1.68695 1.4366,4.81838 2.2654,9.36918 2.7366,15.02668 0.1894,2.27487 0.2749,9.2658 0.1481,12.12047 -0.053,1.19028 -0.083,2.17766 -0.066,2.19417 0.016,0.0165 0.9786,-0.64854 2.1379,-1.47789 7.8951,-5.64765 12.7509,-8.80228 16.8863,-10.97042 l 1.2267,-0.64312 -2.186,-2.2249 c -4.0327,-4.10438 -5.5473,-5.56678 -7.3523,-7.09905 -3.7565,-3.18885 -7.7858,-5.6271 -12.2738,-7.42735 -0.7602,-0.30492 -1.395,-0.593 -1.4107,-0.64018 -0.043,-0.13009 0.2355,-0.74827 0.3376,-0.74827 0.1463,0 2.4594,0.94788 3.6997,1.51604 4.0043,1.8344 7.9256,4.46631 11.6157,7.79639 0.6338,0.57195 2.7722,2.67731 4.7521,4.67859 l 3.5997,3.63869 1.158,-1.23238 c 4.4246,-4.70879 8.9639,-10.1544 13.4343,-16.11689 1.1991,-1.59929 2.466,-3.31228 2.8154,-3.80664 0.3493,-0.49436 0.6663,-0.89884 0.7044,-0.89884 0.1147,0 1.2561,1.98747 1.9325,3.36487 2.4552,5 3.44,9.99018 3.2839,16.63998 -0.068,2.87745 -0.1822,4.42972 -0.7964,10.78602 -0.7226,7.47683 -0.9035,10.04426 -1.0012,14.20957 -0.057,2.40945 -0.068,2.53663 -0.2141,2.34276 z m -0.7214,-2.70105 c 3e-4,-0.50418 0.1853,-4.15724 0.279,-5.50825 0.1429,-2.06032 0.3276,-4.1461 0.7836,-8.85007 0.5668,-5.84539 0.6831,-7.4506 0.748,-10.32508 0.1484,-6.57057 -0.8126,-11.39859 -3.2439,-16.29794 -0.7179,-1.4466 -1.0322,-2.00181 -1.1325,-2.00079 -0.034,3.5e-4 -0.1654,0.15392 -0.2921,0.34127 -0.4565,0.67465 -3.7809,5.10342 -4.9408,6.5822 -3.4389,4.384 -6.664,8.19029 -10.2136,12.05416 -0.7157,0.77902 -1.3125,1.44535 -1.3262,1.48071 -0.014,0.0354 0.7699,0.97441 1.7413,2.08675 4.1207,4.71851 8.7075,10.13 14.2783,16.84574 1.7493,2.10877 3.2116,3.83653 3.2497,3.83947 0.038,0.003 0.069,-0.10874 0.069,-0.24817 z m -42.4504,-12.07666 c 0.1,-2.3943 -0.01,-9.16154 -0.1825,-11.22391 -0.3515,-4.20537 -0.9645,-8.10265 -1.8123,-11.52353 -0.2669,-1.07681 -0.9207,-3.47425 -0.9632,-3.5319 -0.023,-0.0308 -1.8734,1.86186 -3.4738,3.55262 -4.8962,5.17256 -7.0974,8.49025 -7.5443,11.37085 l -0.1,0.64334 0.9523,1.08104 c 2.4863,2.82225 5.6049,5.73991 8.7339,8.17137 1.1227,0.87237 4.176,3.08818 4.2622,3.09309 0.033,0.002 0.09,-0.73298 0.1275,-1.63297 z"
       id="path353"
       transform="scale(0.26458333)" />
    <path
       style="fill:#006680;fill-opacity:1;stroke:none;stroke-width:0.348428"
       d="m 1604.9463,813.53678 c -0.3203,-0.42549 -10.5236,-12.64605 -12.5116,-14.98513 -4.5011,-5.29612 -8.0916,-9.4032 -8.2205,-9.4032 -0.2189,0 -3.1397,1.54435 -5.0185,2.65352 -3.7296,2.20186 -9.0393,5.774 -15.3263,10.3109 l -1.3155,0.9493 -0.2427,-0.3667 c -0.2305,-0.34831 -0.2347,-0.37546 -0.085,-0.5413 0.1524,-0.16841 0.1128,-0.20487 -1.1162,-1.028 -2.407,-1.61208 -5.2116,-3.7638 -7.4534,-5.71839 -1.5686,-1.36768 -4.5414,-4.33829 -5.8459,-5.84163 l -1.0374,-1.19559 0.065,-0.69094 c 0.2365,-2.52318 1.7316,-5.27499 4.8887,-8.99732 1.294,-1.52572 1.8062,-2.08154 4.8225,-5.23341 1.7723,-1.85208 2.6504,-2.7081 2.6949,-2.62736 0.036,0.0659 0.2763,0.82499 0.5334,1.68695 1.4366,4.81838 2.2654,9.36918 2.7366,15.02668 0.1894,2.27487 0.2749,9.2658 0.1481,12.12047 -0.053,1.19028 -0.083,2.17766 -0.066,2.19417 0.016,0.0165 0.9786,-0.64854 2.1379,-1.47789 7.8951,-5.64765 12.7509,-8.80228 16.8863,-10.97042 l 1.2267,-0.64312 -2.186,-2.2249 c -4.0327,-4.10438 -5.5473,-5.56678 -7.3523,-7.09905 -3.7565,-3.18885 -7.7858,-5.6271 -12.2738,-7.42735 -0.7602,-0.30492 -1.395,-0.593 -1.4107,-0.64018 -0.043,-0.13009 0.2355,-0.74827 0.3376,-0.74827 0.1463,0 2.4594,0.94788 3.6997,1.51604 4.0043,1.8344 7.9256,4.46631 11.6157,7.79639 0.6338,0.57195 2.7722,2.67731 4.7521,4.67859 l 3.5997,3.63869 1.158,-1.23238 c 4.4246,-4.70879 8.9639,-10.1544 13.4343,-16.11689 1.1991,-1.59929 2.466,-3.31228 2.8154,-3.80664 0.3493,-0.49436 0.6663,-0.89884 0.7044,-0.89884 0.1147,0 1.2561,1.98747 1.9325,3.36487 2.4552,5 3.44,9.99018 3.2839,16.63998 -0.068,2.87745 -0.1822,4.42972 -0.7964,10.78602 -0.7226,7.47683 -0.9035,10.04426 -1.0012,14.20957 -0.057,2.40945 -0.068,2.53663 -0.2141,2.34276 z m -0.7214,-2.70105 c 3e-4,-0.50418 0.1853,-4.15724 0.279,-5.50825 0.1429,-2.06032 0.3276,-4.1461 0.7836,-8.85007 0.5668,-5.84539 0.6831,-7.4506 0.748,-10.32508 0.1484,-6.57057 -0.8126,-11.39859 -3.2439,-16.29794 -0.7179,-1.4466 -1.0322,-2.00181 -1.1325,-2.00079 -0.034,3.5e-4 -0.1654,0.15392 -0.2921,0.34127 -0.4565,0.67465 -3.7809,5.10342 -4.9408,6.5822 -3.4389,4.384 -6.664,8.19029 -10.2136,12.05416 -0.7157,0.77902 -1.3125,1.44535 -1.3262,1.48071 -0.014,0.0354 0.7699,0.97441 1.7413,2.08675 4.1207,4.71851 8.7075,10.13 14.2783,16.84574 1.7493,2.10877 3.2116,3.83653 3.2497,3.83947 0.038,0.003 0.069,-0.10874 0.069,-0.24817 z m -42.4504,-12.07666 c 0.1,-2.3943 -0.01,-9.16154 -0.1825,-11.22391 -0.3515,-4.20537 -0.9645,-8.10265 -1.8123,-11.52353 -0.2669,-1.07681 -0.9207,-3.47425 -0.9632,-3.5319 -0.023,-0.0308 -1.8734,1.86186 -3.4738,3.55262 -4.8962,5.17256 -7.0974,8.49025 -7.5443,11.37085 l -0.1,0.64334 0.9523,1.08104 c 2.4863,2.82225 5.6049,5.73991 8.7339,8.17137 1.1227,0.87237 4.176,3.08818 4.2622,3.09309 0.033,0.002 0.09,-0.73298 0.1275,-1.63297 z"
       id="path355"
       transform="scale(0.26458333)" />
    <path
       style="fill:#006680;fill-opacity:1;stroke:none;stroke-width:0.123188"
       d="m 1546.942,770.16812 c -3.6176,-0.23758 -6.8768,-1.38078 -9.8921,-3.46981 l -0.4563,-0.31615 v -0.60108 c 0,-0.47238 0.01,-0.59576 0.041,-0.57625 0.022,0.0137 0.2088,0.14903 0.4143,0.30083 1.9949,1.47404 4.2296,2.56175 6.4385,3.13383 1.5105,0.39121 2.7078,0.54735 4.4164,0.57597 2.2684,0.038 4.3458,-0.20649 7.1077,-0.83648 1.236,-0.28194 3.1266,-0.77844 3.1266,-0.82109 0,-0.013 -0.2106,-0.34341 -0.4681,-0.73434 -1.0879,-1.65174 -2.1496,-3.3868 -4.6334,-7.57171 -0.815,-1.37307 -0.9702,-1.61488 -1.1816,-1.84028 -0.3112,-0.33172 -0.3902,-0.45937 -0.4177,-0.6745 -0.012,-0.0958 -0.044,-0.21818 -0.072,-0.27196 -0.056,-0.11176 -1.2603,-2.06911 -1.5259,-2.4808 -0.097,-0.15001 -0.176,-0.28022 -0.176,-0.28935 0,-0.009 0.2552,-0.0166 0.5671,-0.0166 h 0.567 l 0.1523,0.24445 c 0.084,0.13445 0.1597,0.24445 0.1687,0.24445 0.017,0 -0.015,-0.33592 -0.042,-0.43273 -0.015,-0.0539 0.018,-0.0573 0.4815,-0.0489 l 0.4977,0.009 0.1392,1.17337 c 0.077,0.64535 0.1398,1.20378 0.1404,1.24097 7e-4,0.0372 0.1098,0.24985 0.2424,0.4726 0.2178,0.36561 0.2867,0.44943 0.7089,0.86173 2.2821,2.22855 5.0258,4.26925 7.7361,5.75391 0.6404,0.3508 1.8054,0.92589 2.3956,1.18248 l 0.4074,0.17714 0.021,-0.15096 c 0.028,-0.19732 0.083,-1.58145 0.1427,-3.58957 0.095,-3.19717 0.1955,-4.76971 0.4159,-6.53498 l 0.073,-0.58669 0.4973,-0.009 0.4972,-0.009 -0.017,0.0742 c -0.029,0.12276 -0.1738,1.37308 -0.226,1.94831 -0.141,1.5501 -0.2044,2.79465 -0.2798,5.492 -0.061,2.16096 -0.1884,4.7134 -0.2386,4.76368 -0.019,0.0189 -1.5337,-0.61312 -2.157,-0.90001 -2.6756,-1.23146 -5.4213,-2.98307 -7.7702,-4.95697 -0.152,-0.12768 -0.1972,-0.15347 -0.1669,-0.0951 0.094,0.17998 1.7799,2.98117 2.3243,3.86101 0.8818,1.4253 1.2395,1.98269 2.0364,3.17348 0.4003,0.59812 0.723,1.09224 0.7172,1.09804 -0.01,0.006 -0.4239,0.12829 -0.9292,0.27219 -3.8321,1.09141 -6.4915,1.60497 -9.1255,1.76223 -0.6344,0.0379 -2.1105,0.037 -2.6984,-0.002 z"
       id="path357"
       transform="scale(0.26458333)" />
    <path
       style="fill:#006680;fill-opacity:1;stroke:none;stroke-width:0.174214"
       d="m 1551.0785,753.61399 c -0.034,-0.10078 -0.705,-6.34343 -1.153,-10.72841 -0.585,-5.72441 -1.0913,-10.57894 -1.105,-10.59256 -0.01,-0.008 -0.1158,0.0356 -0.2388,0.0979 -0.5112,0.25879 -2.0162,0.88266 -2.5739,1.06698 -1.3418,0.44341 -1.8585,0.39462 -2.1382,-0.20188 l -0.1208,-0.2576 v -1.33673 c 0,-0.90851 0.028,-1.61729 0.083,-2.21252 0.094,-1.00822 0.3428,-3.29308 0.3826,-3.51468 l 0.027,-0.1498 h 0.4829 0.483 l -0.028,0.17285 c -0.015,0.0951 -0.078,0.61881 -0.1408,1.16388 -0.2706,2.36541 -0.4241,4.61908 -0.3595,5.27777 l 0.036,0.36876 0.196,-0.0124 c 0.3981,-0.0252 1.6413,-0.48804 3.053,-1.13668 0.6917,-0.31779 0.7149,-0.33301 0.7289,-0.4769 0.016,-0.1671 0.055,-0.18079 0.2149,-0.076 0.1072,0.0703 0.1548,0.0501 1.4618,-0.61872 1.557,-0.79673 1.742,-0.8958 1.7425,-0.93333 6e-4,-0.0433 -1.2822,-1.62692 -1.7513,-2.16201 -0.2334,-0.2662 -0.652,-0.72771 -0.9303,-1.0256 l -0.5061,-0.5416 h 0.6637 0.6636 l 0.4955,0.55759 c 0.2725,0.30668 0.7397,0.85116 1.0382,1.20997 0.5516,0.663 1.7562,2.22884 1.7558,2.2824 -3e-4,0.0396 -1.3657,0.77261 -2.5694,1.37943 -0.5386,0.27154 -0.9742,0.50906 -0.968,0.52783 0.01,0.0188 0.7166,0.48682 1.5786,1.0401 0.862,0.55328 3.0399,1.95694 4.8399,3.11925 5.2426,3.38533 8.3797,5.36798 10.7944,6.82205 l 0.9763,0.58793 -0.1395,0.37488 c -0.5795,1.55689 -1.3164,3.94157 -1.7431,5.64145 -0.2561,1.01991 -0.6355,2.88773 -0.7677,3.7794 l -0.084,0.56465 h -0.4736 -0.4736 v -0.11538 c 0,-0.1932 0.3536,-2.2111 0.5267,-3.00587 0.3941,-1.80897 0.8616,-3.49566 1.5032,-5.4228 0.2521,-0.75704 0.4481,-1.3929 0.4357,-1.41303 -0.013,-0.0201 -0.1212,-0.0938 -0.2416,-0.16374 -1.5518,-0.90125 -5.5045,-3.40169 -11.6042,-7.34084 -4.562,-2.9461 -5.2404,-3.3795 -5.2598,-3.36011 -0.01,0.009 0.024,0.39909 0.073,0.86629 0.05,0.46721 0.3506,3.39041 0.6693,6.496 0.6027,5.87469 0.9675,9.33379 1.2437,11.79334 0.089,0.79486 0.1623,1.49492 0.1623,1.55567 0,0.10923 -0.01,0.11047 -0.4624,0.11047 -0.3288,0 -0.468,-0.0166 -0.4818,-0.0576 z"
       id="path359"
       transform="scale(0.26458333)" />
    <path
       style="fill:#006680;fill-opacity:1;stroke:none;stroke-width:0.174214"
       d="m 1536.4198,766.24407 c -1.5949,-1.15912 -3.6163,-3.11518 -5.2758,-5.10522 -0.7842,-0.9405 -1.8141,-2.3295 -2.361,-3.18416 -1.6375,-2.55918 -2.5589,-4.49713 -2.9719,-6.25051 -0.1162,-0.49367 -0.1284,-0.62675 -0.1297,-1.42049 0,-0.77934 0.01,-0.91605 0.1044,-1.2414 0.3607,-1.24558 1.276,-2.19519 2.7513,-2.85425 0.7974,-0.35625 1.6995,-0.63183 3.7013,-1.1307 1.0212,-0.25453 1.8803,-0.47731 1.9091,-0.49507 0.029,-0.0178 0.2614,-0.19598 0.517,-0.39603 1.0485,-0.82067 2.0705,-1.30118 3.178,-1.49413 0.6243,-0.10878 1.6511,-0.0663 2.264,0.0936 3.1204,0.81401 6.0769,3.74939 10.1487,10.07624 0.2529,0.39295 0.4753,0.74039 0.4941,0.77208 0.027,0.0449 -0.091,0.0574 -0.5331,0.0566 l -0.5674,-10e-4 -0.6222,-0.95538 c -1.7918,-2.7509 -3.2915,-4.68798 -4.792,-6.18943 -1.5907,-1.59172 -2.8699,-2.42909 -4.3093,-2.82102 -0.3186,-0.0868 -0.4885,-0.10092 -1.2008,-0.10011 -0.7697,8.8e-4 -0.8597,0.01 -1.2445,0.12662 -0.8105,0.24551 -1.6785,0.72895 -2.4276,1.35201 -0.1943,0.16164 -0.4295,0.32572 -0.5226,0.36463 -0.093,0.0389 -1.0023,0.27879 -2.0205,0.53308 -1.0182,0.25429 -2.1596,0.56392 -2.5364,0.68808 -1.8631,0.61377 -2.8678,1.39121 -3.213,2.48637 -0.401,1.27195 -0.028,3.0285 1.137,5.35539 1.8399,3.67476 4.9577,7.58993 8.1196,10.19614 l 0.5647,0.46542 v 0.58808 c 0,0.32344 -0.01,0.58742 -0.012,0.58662 -0.01,-8.1e-4 -0.074,-0.0467 -0.1498,-0.10196 z"
       id="path361"
       transform="scale(0.26458333)" />
    <path
       style="fill:#006680;fill-opacity:1;stroke:none;stroke-width:0.246376"
       d="m 1544.262,725.69157 c 0,-0.33282 0.6633,-4.89049 0.7207,-4.95206 0.066,-0.0707 2.6706,2.37615 4.1638,3.91134 l 1.071,1.10119 -0.6434,0.0188 -0.6434,0.0188 -0.7535,-0.77894 c -0.4145,-0.42842 -1.1464,-1.15513 -1.6265,-1.61491 -0.7581,-0.72597 -0.8791,-0.81895 -0.9196,-0.70658 -0.026,0.0712 -0.1277,0.76009 -0.2266,1.53092 -0.099,0.77084 -0.1902,1.43819 -0.2028,1.48301 -0.035,0.12423 -0.9397,0.11309 -0.9397,-0.0116 z"
       id="path363"
       transform="scale(0.26458333)" />
    <path
       style="fill:#006680;fill-opacity:1;stroke:none;stroke-width:0.246376"
       d="m 1544.262,725.69157 c 0,-0.33282 0.6633,-4.89049 0.7207,-4.95206 0.066,-0.0707 2.6706,2.37615 4.1638,3.91134 l 1.071,1.10119 -0.6434,0.0188 -0.6434,0.0188 -0.7535,-0.77894 c -0.4145,-0.42842 -1.1464,-1.15513 -1.6265,-1.61491 -0.7581,-0.72597 -0.8791,-0.81895 -0.9196,-0.70658 -0.026,0.0712 -0.1277,0.76009 -0.2266,1.53092 -0.099,0.77084 -0.1902,1.43819 -0.2028,1.48301 -0.035,0.12423 -0.9397,0.11309 -0.9397,-0.0116 z"
       id="path365"
       transform="scale(0.26458333)" />
    <path
       style="fill:#006680;fill-opacity:1;stroke:none;stroke-width:0.246376"
       d="m 1515.1561,743.12719 c -0.3944,-0.0272 -0.9884,-0.0871 -1.3201,-0.13314 l -0.6029,-0.0838 v -5.38955 -5.38955 l 0.964,-1.42952 c 2.902,-4.30336 6.3616,-8.62969 9.2588,-11.5785 0.5329,-0.54245 0.6087,-0.64603 0.5363,-0.73323 -0.046,-0.0558 -0.5446,-0.3318 -1.1073,-0.61322 -1.5846,-0.79251 -3.2117,-1.2635 -5.0031,-1.44819 -1.0083,-0.10395 -3.0875,-0.0423 -3.9815,0.11799 l -0.6692,0.12 0.017,-1.89333 0.017,-1.89333 0.5215,-0.0824 c 0.9114,-0.14395 3.5137,-0.17523 4.5872,-0.0551 2.8408,0.3178 5.5692,1.26625 7.7864,2.70679 l 0.6399,0.41574 0.1538,-0.12358 c 0.085,-0.068 0.5679,-0.49825 1.074,-0.95617 4.6441,-4.2023 10.3002,-8.03757 15.7447,-10.67615 7.0031,-3.39388 13.9726,-5.28894 21.6095,-5.87569 1.4213,-0.1092 6.1569,-0.10971 7.5617,-8e-4 7.7909,0.60396 14.663,2.48192 21.7398,5.94092 6.0015,2.93342 11.4955,6.75414 16.8653,11.72865 l 0.9596,0.88903 v 2.86276 2.86277 l -0.4946,-0.53233 c -0.272,-0.29279 -0.514,-0.5322 -0.5377,-0.53203 -0.053,3.9e-4 -0.6609,0.94327 -1.0809,1.67533 -0.9353,1.63067 -1.6488,3.7816 -1.9596,5.90794 -0.2632,1.80138 -0.2368,4.51516 0.062,6.37357 0.027,0.16755 0.02,0.17066 -0.4418,0.20594 -1.5837,0.12095 -4.6534,1.46878 -10.2472,4.49933 -0.3585,0.19424 -0.6569,0.34997 -0.663,0.34607 -0.01,-0.004 0.07,-0.35024 0.1696,-0.76962 l 0.1808,-0.76252 -0.2434,-0.57351 c -0.1338,-0.31544 -0.5723,-1.3362 -0.9744,-2.26838 -0.4021,-0.93217 -0.931,-2.19459 -1.1752,-2.80537 -2.2847,-5.71275 -3.1665,-10.28741 -3.0727,-15.94088 l 0.01,-0.55911 2.2695,-1.14799 c 2.4148,-1.22147 3.3592,-1.63867 4.6899,-2.07192 0.6985,-0.22741 2.3224,-0.64529 2.5178,-0.6479 0.09,-10e-4 -0.164,-0.18341 -1.4266,-1.02345 -4.608,-3.06578 -9.3308,-5.4016 -14.2262,-7.03596 -0.5892,-0.19671 -1.0939,-0.3487 -1.1216,-0.33776 -0.028,0.0109 0.2534,1.00257 0.6247,2.20364 2.1411,6.92548 2.8146,10.07089 3.0241,14.12375 0.087,1.67737 -0.057,5.0356 -0.2688,6.28553 -0.5405,3.18882 -1.8951,5.19463 -4.8319,7.15476 l -0.6985,0.46621 -0.3445,-0.13771 c -0.1894,-0.0757 -1.0192,-0.36622 -1.8438,-0.64551 -1.7589,-0.59572 -2.2265,-0.79784 -2.9322,-1.26743 -0.8991,-0.59822 -1.6399,-1.50673 -2.0607,-2.52709 -0.1979,-0.48009 -0.4069,-1.20035 -0.3721,-1.28243 0.011,-0.0255 0.4157,-0.40085 0.8997,-0.83414 2.2028,-1.97195 4.0709,-4.09658 5.1869,-5.89907 0.7972,-1.28767 1.5063,-2.97009 1.815,-4.30631 0.1484,-0.64239 0.2991,-1.87136 0.2991,-2.43958 v -0.49369 l -5.4156,6.77127 c -2.9786,3.7242 -5.4361,6.7926 -5.4612,6.81866 -0.034,0.0355 -9.0191,-5.2189 -9.9108,-5.79585 -0.1557,-0.10076 -0.1552,-0.10132 0.4325,-0.48333 0.9906,-0.64392 2.4527,-1.42798 5.7858,-3.10278 4.4942,-2.25821 6.0828,-3.1297 7.5027,-4.11596 0.6949,-0.48272 1.423,-1.15862 1.4961,-1.38894 0.039,-0.12379 0.077,-0.13343 0.3788,-0.0971 0.1844,0.0222 0.4012,0.0405 0.4819,0.0408 0.1821,7e-4 0.1828,0.0555 0.01,0.43319 -0.419,0.89135 -1.9553,2.03266 -4.8827,3.62727 -0.6248,0.34036 -2.8668,1.49736 -4.9821,2.5711 -3.9706,2.0155 -4.4852,2.29039 -4.4821,2.39416 0,0.0627 7.8976,4.76127 7.9314,4.71977 0.01,-0.0127 2.5032,-3.1305 5.5399,-6.92846 l 5.5211,-6.90537 -0.019,-0.29778 c -0.019,-0.29677 -0.02,-0.29772 -0.2475,-0.28135 -0.1255,0.009 -1.0789,0.0753 -2.1186,0.14721 -5.1373,0.35543 -8.2758,0.73852 -11.5319,1.40761 -4.4885,0.92237 -8.3963,2.28086 -12.5781,4.37261 -0.8912,0.44581 -1.6294,0.80153 -1.6405,0.79048 -0.011,-0.011 0.2884,-0.56277 0.6655,-1.22605 0.377,-0.66327 1.4353,-2.55532 2.3518,-4.20455 2.739,-4.9289 4.2907,-7.57768 6.1604,-10.51592 0.4635,-0.72851 0.8263,-1.34107 0.8061,-1.36126 -0.089,-0.0894 -3.4419,0.3373 -5.2518,0.66833 -10.2389,1.87278 -20.3437,6.97987 -28.8705,14.59157 -0.406,0.36238 -0.8294,0.73586 -0.941,0.82996 l -0.2028,0.1711 0.2965,0.3504 c 1.3348,1.57742 2.514,4.01785 2.957,6.11944 0.401,1.90285 0.3886,4.00804 -0.035,5.95307 -0.5628,2.58274 -2.0022,5.17154 -3.9733,7.14645 -3.1833,3.18939 -7.422,4.9662 -12.1931,5.11112 -0.5198,0.0158 -1.2679,0.007 -1.6622,-0.0206 z m 3.6178,-3.8793 c 4.9766,-0.86628 8.8992,-3.9728 10.2917,-8.15053 0.3954,-1.18616 0.4913,-1.82227 0.4913,-3.25934 0,-1.11048 -0.022,-1.4052 -0.1478,-1.9882 -0.3066,-1.41941 -0.8319,-2.66212 -1.6284,-3.85302 -0.7198,-1.07603 -0.5259,-1.10615 -1.8181,0.28237 -1.8899,2.03074 -3.2959,3.67791 -4.915,5.75788 -2.3216,2.9825 -4.9175,6.84504 -6.7986,10.1157 -0.6357,1.1052 -0.6398,1.15123 -0.1033,1.16654 0.1613,0.005 0.7187,0.0339 1.2385,0.0652 1.1319,0.068 2.5402,0.0113 3.3897,-0.13658 z m 82.339,-2.0132 c 3.0826,-1.55423 4.7188,-2.24854 5.9444,-2.5225 l 0.3789,-0.0847 -0.053,-0.75468 c -0.092,-1.31944 -0.057,-3.72573 0.07,-4.69848 0.3795,-2.91283 1.2946,-5.43014 2.8138,-7.74038 0.267,-0.40606 0.4855,-0.7629 0.4855,-0.79299 0,-0.0301 -0.1304,-0.17485 -0.2897,-0.3217 -0.2024,-0.18662 -0.8844,-0.56453 -2.2652,-1.25537 l -1.9756,-0.98838 -0.7586,0.79259 c -2.5235,2.63649 -4.133,5.5945 -5.0759,9.32843 -0.343,1.35856 -0.5672,2.56725 -1.0145,5.47095 -0.3797,2.46483 -0.6797,4.24712 -0.7881,4.68191 -0.02,0.0807 -0.023,0.14667 -0.01,0.14667 0.017,0 1.157,-0.56763 2.533,-1.26139 z m -3.0491,-1.2809 c 0.095,-0.59157 0.3053,-1.95561 0.4681,-3.03119 0.7191,-4.75094 1.4425,-7.31686 2.7938,-9.90994 1.0532,-2.02097 2.4837,-3.89986 4.2649,-5.6019 l 0.4747,-0.45367 0.877,0.43706 c 0.4823,0.24039 0.877,0.42615 0.877,0.41282 0,-0.0877 -3.0161,-2.59225 -4.3259,-3.59234 l -0.8384,-0.64011 -0.6609,0.11424 c -1.4374,0.24845 -3.2184,0.78182 -4.5721,1.36923 -0.3944,0.17112 -1.5634,0.74058 -2.5979,1.26544 l -1.8807,0.95431 0.038,1.66226 c 0.1076,4.69969 0.9506,8.67802 2.8736,13.56114 0.7528,1.91169 1.9381,4.64015 1.9901,4.58115 0.026,-0.0291 0.1241,-0.53693 0.2187,-1.1285 z m -13.7836,-3.675 c 1.7162,-1.44937 2.6524,-3.32215 3.0045,-6.01 0.092,-0.70461 0.193,-2.92836 0.1948,-4.30086 0,-2.63872 -0.4087,-5.60063 -1.2409,-8.91792 -0.4294,-1.71172 -0.6806,-2.58645 -1.674,-5.82953 -0.6388,-2.08563 -0.8389,-2.6651 -0.889,-2.57542 -0.1027,0.18339 -0.1327,2.83119 -0.043,3.81036 0.091,0.99693 0.3687,3.24562 0.4052,3.28213 0.013,0.0135 0.3024,-0.002 0.642,-0.0352 0.3397,-0.0328 0.7286,-0.0605 0.8642,-0.0615 l 0.2467,-0.002 -0.7978,0.99164 -0.7977,0.99164 0.018,0.75211 c 0.048,2.04661 -0.338,4.07591 -1.1383,5.98615 -1.0264,2.44983 -3.1532,5.23353 -5.9815,7.82892 -0.8489,0.77894 -1.0157,0.96152 -0.9827,1.07559 0.1026,0.3541 0.6391,1.34848 0.9074,1.68172 0.6752,0.83857 1.549,1.31002 3.8906,2.09924 l 1.586,0.53456 0.6193,-0.41972 c 0.3406,-0.23085 0.8657,-0.6278 1.1668,-0.88213 z m -25.8783,-15.42339 c 3.0814,-1.40719 6.6701,-2.57397 10.3164,-3.35412 3.2697,-0.69959 6.5178,-1.10605 12.0108,-1.50302 1.2521,-0.0905 2.29,-0.17793 2.3063,-0.1943 0.016,-0.0164 -0.032,-0.53685 -0.1083,-1.15662 -0.2335,-1.90446 -0.2758,-2.49307 -0.2863,-3.9874 -0.01,-1.27751 0.05,-2.11468 0.1886,-2.68906 0.031,-0.13049 -0.034,-0.15566 -1.0634,-0.40642 -3.7235,-0.9073 -6.828,-1.34636 -10.6796,-1.51035 -1.5452,-0.0658 -4.6415,-0.0266 -4.7773,0.0605 -0.078,0.0499 -1.4079,2.12923 -2.5689,4.01615 -1.4829,2.4099 -2.7968,4.69681 -5.2998,9.22394 -0.5649,1.02181 -1.0429,1.88482 -1.0621,1.9178 -0.042,0.0712 -0.079,0.0863 1.0236,-0.41712 z"
       id="path367"
       transform="scale(0.26458333)" />
    <path
       style="fill:#006680;fill-opacity:1;stroke:none;stroke-width:0.246376"
       d="m 1535.0957,868.92728 c -1.5828,-4.73628 -2.6862,-10.00643 -3.561,-17.00666 -0.407,-3.25757 -0.7175,-6.34308 -1.3068,-12.98606 -0.1796,-2.02568 -0.3698,-4.13569 -0.4226,-4.68891 -0.053,-0.55322 -0.08,-1.02256 -0.06,-1.04299 0.02,-0.0204 0.217,-0.0981 0.4379,-0.17265 l 0.4016,-0.13551 0.3528,0.55922 c 0.194,0.30758 1.115,1.8646 2.0465,3.46005 2.5489,4.36524 3.5788,5.96858 4.9172,7.65442 0.6439,0.81108 1.6657,1.89526 2.3129,2.45408 0.3823,0.33007 0.478,0.3807 0.7822,0.41363 4.7187,0.51076 7.7115,1.36847 11.6566,3.3407 1.8433,0.92152 2.9928,1.58353 5.6713,3.26618 4.4818,2.81554 5.9169,3.651 7.9458,4.62565 l 1.1338,0.54465 -0.9588,0.71449 c -3.6098,2.6898 -7.3611,4.51829 -12.2928,5.99178 -2.1279,0.63578 -4.4335,1.19444 -8.2135,1.99016 -5.2526,1.10572 -7.3086,1.59026 -9.4942,2.23747 l -0.8568,0.25375 z m 2.3453,-0.042 c 1.5109,-0.41115 3.4164,-0.85631 6.2491,-1.45991 4.1768,-0.88999 5.7428,-1.23839 7.2358,-1.60976 5.7403,-1.42789 9.7725,-3.11044 13.5837,-5.66826 0.9672,-0.6491 1.083,-0.73417 1.046,-0.7685 -0.015,-0.0142 -0.3359,-0.17914 -0.7123,-0.36657 -1.1186,-0.55695 -2.9669,-1.63578 -5.1172,-2.98694 -5.11,-3.21082 -6.6653,-4.09756 -8.9958,-5.12891 -3.1724,-1.40392 -6.1701,-2.17503 -9.7331,-2.50362 -0.6405,-0.0591 -0.6864,-0.0736 -0.9778,-0.30899 -1.5669,-1.26594 -2.9369,-2.8632 -4.6045,-5.36838 -0.9736,-1.46255 -1.5512,-2.41312 -3.3951,-5.58787 -0.8226,-1.4163 -1.1115,-1.86462 -1.1265,-1.74813 -0.024,0.19001 0.6109,7.35936 0.9666,10.9069 0.9845,9.81678 2.1052,16.04099 3.8911,21.60981 0.3542,1.10429 0.4534,1.34754 0.5364,1.31513 0.056,-0.0219 0.5751,-0.16858 1.1536,-0.326 z"
       id="path369"
       transform="scale(0.26458333)" />
    <path
       style="fill:#006680;fill-opacity:1;stroke:none;stroke-width:0.246376"
       d="m 1535.0957,868.92728 c -1.5828,-4.73628 -2.6862,-10.00643 -3.561,-17.00666 -0.407,-3.25757 -0.7175,-6.34308 -1.3068,-12.98606 -0.1796,-2.02568 -0.3698,-4.13569 -0.4226,-4.68891 -0.053,-0.55322 -0.08,-1.02256 -0.06,-1.04299 0.02,-0.0204 0.217,-0.0981 0.4379,-0.17265 l 0.4016,-0.13551 0.3528,0.55922 c 0.194,0.30758 1.115,1.8646 2.0465,3.46005 2.5489,4.36524 3.5788,5.96858 4.9172,7.65442 0.6439,0.81108 1.6657,1.89526 2.3129,2.45408 0.3823,0.33007 0.478,0.3807 0.7822,0.41363 4.7187,0.51076 7.7115,1.36847 11.6566,3.3407 1.8433,0.92152 2.9928,1.58353 5.6713,3.26618 4.4818,2.81554 5.9169,3.651 7.9458,4.62565 l 1.1338,0.54465 -0.9588,0.71449 c -3.6098,2.6898 -7.3611,4.51829 -12.2928,5.99178 -2.1279,0.63578 -4.4335,1.19444 -8.2135,1.99016 -5.2526,1.10572 -7.3086,1.59026 -9.4942,2.23747 l -0.8568,0.25375 z m 2.3453,-0.042 c 1.5109,-0.41115 3.4164,-0.85631 6.2491,-1.45991 4.1768,-0.88999 5.7428,-1.23839 7.2358,-1.60976 5.7403,-1.42789 9.7725,-3.11044 13.5837,-5.66826 0.9672,-0.6491 1.083,-0.73417 1.046,-0.7685 -0.015,-0.0142 -0.3359,-0.17914 -0.7123,-0.36657 -1.1186,-0.55695 -2.9669,-1.63578 -5.1172,-2.98694 -5.11,-3.21082 -6.6653,-4.09756 -8.9958,-5.12891 -3.1724,-1.40392 -6.1701,-2.17503 -9.7331,-2.50362 -0.6405,-0.0591 -0.6864,-0.0736 -0.9778,-0.30899 -1.5669,-1.26594 -2.9369,-2.8632 -4.6045,-5.36838 -0.9736,-1.46255 -1.5512,-2.41312 -3.3951,-5.58787 -0.8226,-1.4163 -1.1115,-1.86462 -1.1265,-1.74813 -0.024,0.19001 0.6109,7.35936 0.9666,10.9069 0.9845,9.81678 2.1052,16.04099 3.8911,21.60981 0.3542,1.10429 0.4534,1.34754 0.5364,1.31513 0.056,-0.0219 0.5751,-0.16858 1.1536,-0.326 z"
       id="path371"
       transform="scale(0.26458333)" />
    <path
       style="fill:#006680;fill-opacity:1;stroke:none;stroke-width:0.492752"
       d="m 1580.9417,883.25393 c 0.4552,-0.90538 2.2204,-5.01006 2.2204,-5.16326 0,-0.0283 -0.3265,0.17713 -0.7254,0.45659 -1.5194,1.06437 -3.8286,1.63158 -8.2053,2.01549 -6.2129,0.54498 -7.2382,0.68393 -8.9306,1.2103 -1.0652,0.33129 -1.5207,0.3805 -1.7251,0.18632 -0.053,-0.0499 0.4886,-2.44923 1.2025,-5.33187 2.4971,-10.08322 3.7849,-14.06322 4.8369,-14.94838 0.7991,-0.67243 2.372,-0.34785 5.0501,1.04217 3.4104,1.77005 8.0357,5.19722 9.0202,6.68365 0.2145,0.32374 0.3824,0.73967 0.3732,0.92429 -0.01,0.18463 0.1063,0.83436 0.2567,1.44386 0.1503,0.6095 0.3094,1.39651 0.3535,1.74891 l 0.08,0.64073 0.8208,-1.56935 c 0.9446,-1.80594 1.9758,-3.41098 3.1095,-4.8399 0.9526,-1.20057 3.1996,-3.54172 3.4006,-3.54295 0.2482,-0.002 14.1584,5.63698 14.1584,5.73914 0,0.0771 -25.2593,14.14597 -25.7109,14.32035 -0.066,0.0254 0.1206,-0.43182 0.4144,-1.01609 z m 12.5404,-7.14591 c 5.9352,-3.28053 10.7925,-5.99394 10.7941,-6.02979 0,-0.0859 -11.8781,-4.84032 -12.0732,-4.83101 -0.196,0.009 -2.3216,2.37423 -3.2946,3.66541 -1.8517,2.45736 -2.9268,4.52902 -4.9691,9.57471 -0.7255,1.79264 -1.3502,3.33268 -1.3881,3.42232 -0.038,0.0896 -0.022,0.16296 0.035,0.16296 0.057,0 4.9603,-2.68407 10.8955,-5.9646 z m -27.399,4.52504 c 1.1834,-0.29659 3.3601,-0.56484 6.8446,-0.8435 6.9769,-0.55795 9.3093,-1.35456 10.3889,-3.54822 0.4067,-0.82616 0.4313,-0.95494 0.4183,-2.18418 -0.011,-1.03341 -0.09,-1.55136 -0.3768,-2.47963 -0.1997,-0.64535 -0.3695,-1.30256 -0.3773,-1.46047 -0.047,-0.94705 -5.7157,-5.17665 -9.2376,-6.89273 -1.4799,-0.72106 -2.3917,-0.99657 -3.1232,-0.94368 -0.5471,0.0395 -0.5662,0.0571 -0.9665,0.88777 -0.9014,1.87036 -1.9815,5.51191 -3.772,12.71731 -0.6779,2.72804 -1.2325,5.00771 -1.2325,5.06594 0,0.0582 0.1026,0.0655 0.2281,0.0161 0.1255,-0.0493 0.6682,-0.19998 1.206,-0.33476 z"
       id="path373"
       transform="scale(0.26458333)" />
    <path
       style="fill:#006680;fill-opacity:1;stroke:none;stroke-width:0.492752"
       d="m 1583.3833,866.03524 c -2.2804,-0.55655 -4.1792,-1.04492 -4.2196,-1.08526 -0.04,-0.0403 0.058,-0.78757 0.2192,-1.66052 0.4876,-2.64509 1.1956,-3.72209 3.2577,-4.95573 l 0.8474,-0.50697 0.7628,0.8125 c 1.5697,1.67197 2.8738,4.0148 3.2105,5.76771 0.083,0.43023 0.1318,1.20028 0.1093,1.71121 l -0.041,0.92896 z m 3.2988,-0.70192 c 0,-0.76398 -0.4381,-2.16595 -1.0026,-3.20789 -0.513,-0.94703 -1.5396,-2.38012 -2.0431,-2.85199 l -0.3304,-0.3097 -0.5654,0.33131 c -0.8376,0.49088 -1.7172,1.49874 -2.0208,2.31548 -0.2788,0.7498 -0.6291,2.57155 -0.5163,2.68437 0.067,0.067 6.0124,1.5704 6.3157,1.59705 0.1078,0.009 0.1629,-0.17955 0.1629,-0.55863 z"
       id="path375"
       transform="scale(0.26458333)" />
    <path
       style="fill:#006680;fill-opacity:1;stroke:none;stroke-width:0.492752"
       d="m 1583.3833,866.03524 c -2.2804,-0.55655 -4.1792,-1.04492 -4.2196,-1.08526 -0.04,-0.0403 0.058,-0.78757 0.2192,-1.66052 0.4876,-2.64509 1.1956,-3.72209 3.2577,-4.95573 l 0.8474,-0.50697 0.7628,0.8125 c 1.5697,1.67197 2.8738,4.0148 3.2105,5.76771 0.083,0.43023 0.1318,1.20028 0.1093,1.71121 l -0.041,0.92896 z m 3.2988,-0.70192 c 0,-0.76398 -0.4381,-2.16595 -1.0026,-3.20789 -0.513,-0.94703 -1.5396,-2.38012 -2.0431,-2.85199 l -0.3304,-0.3097 -0.5654,0.33131 c -0.8376,0.49088 -1.7172,1.49874 -2.0208,2.31548 -0.2788,0.7498 -0.6291,2.57155 -0.5163,2.68437 0.067,0.067 6.0124,1.5704 6.3157,1.59705 0.1078,0.009 0.1629,-0.17955 0.1629,-0.55863 z"
       id="path377"
       transform="scale(0.26458333)" />
    <path
       style="fill:#006680;fill-opacity:1;stroke:none;stroke-width:0.492752"
       d="m 1607.0071,839.8641 0.367,-0.61928 -0.098,-6.77944 c -0.054,-3.72869 -0.1419,-7.71892 -0.1954,-8.86718 l -0.097,-2.08775 0.7683,-0.17203 c 0.4226,-0.0946 1.4793,-0.20412 2.3481,-0.24333 1.8761,-0.0847 2.9462,0.11006 4.9226,0.89578 0.7081,0.28149 1.3038,0.49468 1.3237,0.47376 0.02,-0.0209 0.1153,-0.22641 0.2119,-0.45664 l 0.1756,-0.41861 3.3897,5.48974 c 1.8644,3.01935 3.4347,5.56555 3.4896,5.65821 0.2026,0.34211 -3.9259,2.34451 -10.6004,5.14131 -2.2557,0.9452 -4.2773,1.79794 -4.4924,1.89497 -0.4765,0.21491 -1.7487,0.70976 -1.8247,0.70976 -0.03,0 0.1101,-0.27867 0.312,-0.61927 z m 7.9662,-3.77477 c 4.5599,-1.94829 7.4764,-3.38353 7.3809,-3.63226 -0.091,-0.23765 -5.1404,-8.41787 -5.2957,-8.57961 -0.06,-0.0625 -0.2363,0.31886 -0.3917,0.84743 -0.1554,0.52858 -0.6041,2.03467 -0.9971,3.34687 l -0.7146,2.38582 -2.8574,3.93731 c -1.5716,2.16552 -2.8582,3.97745 -2.8592,4.0265 0,0.0985 0.9931,-0.3061 5.7348,-2.33206 z m -2.935,-5.68493 c 1.9883,-3.93006 3.5941,-7.16638 3.5684,-7.19183 -0.1248,-0.12356 -2.1327,-0.86112 -2.8663,-1.05289 -0.6507,-0.17008 -1.2127,-0.20375 -2.591,-0.15521 -0.968,0.0341 -1.8709,0.10843 -2.0064,0.16521 -0.229,0.096 -0.2406,0.21415 -0.1638,1.67937 0.045,0.86688 0.1215,4.35062 0.1693,7.74164 0.048,3.39103 0.1291,6.1191 0.1808,6.06238 0.052,-0.0567 1.7207,-3.31861 3.709,-7.24867 z m 0.7277,1.57208 1.3451,-1.85783 0.6246,-2.02079 c 0.3436,-1.11144 0.6108,-2.06534 0.5937,-2.11977 -0.017,-0.0544 -0.9254,1.69094 -2.0185,3.87862 -1.0932,2.18768 -1.9656,3.9776 -1.9388,3.9776 0.027,0 0.6541,-0.83603 1.3939,-1.85783 z"
       id="path379"
       transform="scale(0.26458333)" />
    <path
       style="fill:#006680;fill-opacity:1;stroke:none;stroke-width:0.492752"
       d="m 1619.7254,811.24577 c -2.579,-2.06352 -4.1251,-4.07926 -4.7635,-6.21059 -0.099,-0.3309 -0.2662,-0.59788 -0.3952,-0.63161 -0.1547,-0.0405 -0.3108,-0.38543 -0.5076,-1.12168 -0.1563,-0.58478 -1.0472,-3.76198 -1.9798,-7.06044 -2.5889,-9.15674 -3.5646,-13.28204 -4.3323,-18.31752 -0.3409,-2.23573 -0.7265,-5.65641 -0.7265,-6.44397 0,-0.2498 0.2699,-1.08749 0.5998,-1.86153 1.7369,-4.07505 4.1857,-7.99271 6.6278,-10.60355 l 0.6237,-0.66676 0.9308,0.20793 c 2.2,0.49151 4.109,1.64297 6.4064,3.86418 1.5894,1.53668 2.1578,1.95738 5.2683,3.8994 3.1915,1.99262 4.9442,3.45372 6.3333,5.2795 1.1126,1.46239 1.5717,2.43322 1.9431,4.10845 0.7073,3.19081 0.7956,4.10141 0.796,8.21355 5e-4,4.22942 -0.016,4.41611 -0.9844,11.21215 -0.3526,2.47384 -0.7152,5.28992 -0.8059,6.25794 l -0.1649,1.76005 -7.1045,4.26974 c -3.9076,2.34836 -7.1343,4.26917 -7.1706,4.26848 -0.036,-6.5e-4 -0.3036,-0.19137 -0.594,-0.42372 z m 7.3074,-4.59487 c 3.5853,-2.13955 6.5586,-3.92408 6.6074,-3.96561 0.049,-0.0415 0.1841,-0.95554 0.3008,-2.03112 0.1167,-1.07559 0.4413,-3.53965 0.7213,-5.47571 0.749,-5.17775 0.9079,-6.60368 1.0289,-9.23125 0.1743,-3.78272 -0.082,-6.88696 -0.842,-10.20947 -0.2751,-1.20217 -0.4462,-1.63542 -1.004,-2.54229 -0.7711,-1.25369 -2.5909,-3.19945 -3.9467,-4.21985 -0.9102,-0.68499 -6.3319,-4.14575 -6.3896,-4.07856 -0.016,0.0191 -0.099,0.73871 -0.1845,1.59918 -0.7684,7.77155 -2.0649,14.57858 -4.7677,25.03178 -0.5376,2.07946 -1.457,5.64673 -2.0431,7.92727 l -1.0656,4.14644 0.2984,0.93814 c 0.3936,1.23733 1.0546,2.48769 1.8087,3.4214 0.6728,0.83308 2.7145,2.70664 2.8647,2.62873 0.052,-0.0269 3.0278,-1.79953 6.613,-3.93908 z m -11.18,-8.18853 c 3.4744,-13.43481 4.4102,-17.42958 5.3051,-22.64442 0.5447,-3.17359 1.0433,-6.86338 1.3021,-9.63385 l 0.1874,-2.00699 -0.4147,-0.51624 c -0.5883,-0.7322 -2.2113,-2.12725 -3.2799,-2.81925 -0.9293,-0.60176 -2.3465,-1.21581 -3.301,-1.43027 l -0.5336,-0.11988 -0.833,0.9949 c -2.1015,2.50974 -3.363,4.45642 -4.7845,7.38322 -1.7129,3.52686 -1.6464,3.27772 -1.4529,5.44057 0.6242,6.97636 1.7421,11.89285 6.4809,28.50323 0.1096,0.38416 0.2385,0.65922 0.2865,0.61124 0.048,-0.048 0.5149,-1.741 1.0376,-3.76226 z"
       id="path381"
       transform="scale(0.26458333)" />
    <path
       style="fill:#006680;fill-opacity:1;stroke:none;stroke-width:0.696856"
       d="m 1564.856,893.70509 c -8.126,-0.67649 -16.4217,-3.21176 -23.8298,-7.28264 -4.0281,-2.21356 -7.7773,-4.86141 -12.8392,-9.06771 l -0.4866,-0.40436 -1.1773,0.74852 c -1.429,0.90857 -3.147,1.63216 -4.9956,2.10408 -2.1076,0.53804 -6.3662,0.50051 -8.4813,-0.0747 -9.959,-2.70862 -14.4219,-12.90253 -9.1322,-20.85937 1.0222,-1.53753 3.1387,-3.55336 4.655,-4.43339 l 1.1118,-0.64532 -1.6453,-3.28911 c -6.8451,-13.68425 -10.7224,-27.91628 -12.1385,-44.55657 -0.1079,-1.26759 -0.2455,-4.66934 -0.3059,-7.55944 -0.3436,-16.44636 2.4794,-32.79188 8.1915,-47.43084 l 1.205,-3.0883 h 2.1131 c 1.6161,0 2.0916,0.0542 2.022,0.23047 -0.05,0.12676 -0.3968,0.96616 -0.7705,1.86533 l -0.6794,1.63486 1.3799,3.80424 c 3.6715,10.1219 6.9089,20.80486 10.4652,34.53403 0.5429,2.09596 1.0489,3.77258 1.1246,3.72584 0.2227,-0.13766 1.9623,-5.64759 2.7288,-8.64292 0.7032,-2.74847 1.5274,-7.20135 1.7686,-9.5554 0.069,-0.67684 0.1631,-1.23062 0.2084,-1.23062 0.045,0 0.9672,0.67925 2.0488,1.50944 2.5441,1.9529 4.7803,4.20986 5.4535,5.50419 l 0.5312,1.0214 -0.2866,5.52397 -0.2866,5.52396 -1.3538,2.0354 c -0.7446,1.11947 -2.0513,3.38017 -2.9038,5.02377 l -1.55,2.98837 -1.4666,-1.97878 c -0.8066,-1.08834 -2.1818,-3.00109 -3.0559,-4.25057 -0.8742,-1.24949 -1.6053,-2.20488 -1.6248,-2.12311 -2.2635,9.49525 -6.8921,21.54163 -13.5189,35.18455 l -1.8786,3.86756 0.4024,1.29064 c 0.8954,2.87161 3.5076,9.08361 5.4272,12.90635 1.8904,3.76443 2.0701,4.05265 2.4979,4.00582 0.2535,-0.0277 1.5885,-0.10019 2.9666,-0.16097 2.859,-0.1261 4.6255,0.13988 6.9868,1.05199 2.2247,0.8593 3.6613,1.8043 5.4494,3.58448 1.2741,1.26843 1.8453,2.0069 2.4246,3.1344 2.3143,4.50451 2.2028,8.87723 -0.3336,13.08254 l -0.7575,1.25604 0.8811,0.7589 c 2.1579,1.85861 4.4208,3.57651 6.8125,5.17183 18.8306,12.56031 40.6392,13.0799 59.738,1.42325 3.2299,-1.97134 9.5182,-6.74331 10.5937,-8.03919 0.2095,-0.25247 0.2711,-1.04074 0.2867,-3.66869 0.023,-3.86879 0.2585,-4.95259 1.6712,-7.68779 2.3897,-4.62703 6.7313,-7.58319 11.5552,-7.86789 0.9886,-0.0583 1.8709,-0.19772 1.9608,-0.30975 0.4294,-0.53493 3.1301,-5.72366 4.2937,-8.24904 3.7908,-8.22753 6.1094,-15.4823 8.4184,-26.34084 0.1235,-0.58097 0.1823,1.52857 0.1961,7.03678 l 0.02,7.86647 -0.9353,2.70743 c -1.8488,5.35223 -4.2066,10.78942 -6.6981,15.4464 l -1.3604,2.54278 1.132,0.57003 c 3.4876,1.75621 5.9975,4.49948 7.4068,8.09574 0.4419,1.12762 0.455,1.29718 0.455,5.91551 0,4.64437 -0.011,4.78352 -0.4692,6.00111 -1.5292,4.06267 -5.0752,7.47032 -9.2106,8.85128 -1.3221,0.4415 -1.7522,0.49324 -4.1485,0.49907 -2.5285,0.006 -2.7603,-0.0244 -4.2764,-0.56383 -3.0514,-1.08569 -5.8647,-3.30209 -7.5612,-5.95696 -0.4252,-0.66539 -0.7924,-1.23858 -0.8159,-1.27375 -0.024,-0.0352 -0.816,0.59478 -1.761,1.3999 -9.7136,8.27492 -20.8047,13.33093 -32.6343,14.87666 -2.6305,0.34371 -8.6727,0.49809 -11.2141,0.28651 z m 61.3051,-12.92531 c 4.3193,-1.34071 7.3122,-5.47694 7.6006,-10.50411 0.2666,-4.64825 -2.1361,-9.11783 -5.9681,-11.10175 -0.7247,-0.37519 -1.449,-0.68216 -1.6097,-0.68216 -0.1684,0 -0.9312,0.95613 -1.802,2.25861 -2.9225,4.37145 -6.2143,8.52461 -9.3393,11.78273 l -1.7153,1.78844 0.4614,0.88909 c 0.6575,1.26703 1.065,1.83114 2.0753,2.87252 2.7946,2.88085 6.542,3.86223 10.2971,2.69663 z M 1520.79,876.25066 c 1.0764,-0.25736 3.3597,-1.21097 4.0426,-1.68838 0.2091,-0.14617 -0.1638,-0.63032 -1.822,-2.36539 -3.3325,-3.487 -7.0132,-8.22145 -9.8666,-12.69106 -0.7768,-1.21688 -1.4826,-2.28394 -1.5684,-2.37124 -0.2747,-0.27965 -2.067,0.85683 -3.314,2.10148 -1.9739,1.97007 -2.9592,4.2699 -2.9592,6.90732 0,7.00845 7.6279,11.98648 15.4876,10.10727 z m 7.7432,-5.77316 c 1.4459,-2.86444 1.4612,-5.77589 0.045,-8.66696 -0.7124,-1.45481 -3.111,-3.80272 -4.7548,-4.65435 -1.9875,-1.02972 -3.8757,-1.48873 -6.1987,-1.50689 -1.0816,-0.008 -2.0238,0.0419 -2.0939,0.11182 -0.149,0.14868 2.3845,4.02875 4.3878,6.71992 2.3553,3.16404 7.5133,9.10145 7.9067,9.10145 0.082,0 0.4006,-0.49724 0.7074,-1.10499 z m 86.0158,-3.17786 c 2.5602,-2.97895 7.182,-9.17663 6.8434,-9.17663 -0.043,0 -0.6117,0.16471 -1.2635,0.36603 -3.2038,0.98956 -5.9371,3.85417 -7.0397,7.37778 -0.4919,1.57213 -0.7976,3.79182 -0.4966,3.60579 0.1044,-0.0645 0.9848,-1.04236 1.9564,-2.17297 z m -107.9265,-37.70888 c 6.2028,-12.93997 10.3776,-23.54849 12.6172,-32.06176 l 0.6471,-2.4597 -1.1282,-4.38046 c -3.422,-13.28641 -7.5465,-26.90035 -10.8511,-35.81664 l -0.7175,-1.93595 -0.2928,0.70032 c -0.6084,1.45524 -2.7573,8.25458 -3.4491,10.91326 -4.9256,18.93117 -5.3358,38.60343 -1.2052,57.80415 0.8467,3.93567 2.5811,10.32508 2.8028,10.32508 0.053,0 0.7626,-1.38974 1.5768,-3.0883 z m 21.7253,-30.60952 c 0.723,-1.39268 1.8429,-3.32036 2.4887,-4.28373 l 1.1743,-1.75157 0.2657,-5.16254 0.2658,-5.16254 -0.4305,-0.92188 c -0.2368,-0.50704 -0.9106,-1.42255 -1.4972,-2.03446 -1.041,-1.08575 -4.2536,-3.7734 -4.5105,-3.7734 -0.071,0 -0.1842,0.3941 -0.2518,0.87579 -0.6268,4.46862 -1.7382,9.20909 -3.2359,13.80291 -0.5989,1.83675 -1.0889,3.43761 -1.0889,3.55747 0,0.33491 5.1931,7.57939 5.3595,7.47656 0.081,-0.0498 0.7379,-1.22992 1.4608,-2.62261 z"
       id="path383"
       transform="scale(0.26458333)" />
    <path
       style="fill:#006680;fill-opacity:1;stroke:none;stroke-width:0.985503"
       d="m 1636.9859,826.24272 c -0.068,-6.45425 -0.011,-7.70481 0.5093,-11.17847 1.115,-7.43625 1.442,-12.85412 1.2907,-21.38131 -0.2439,-13.74035 -1.9732,-24.09185 -6.0903,-36.45676 l -1.7204,-5.16705 -1.0748,0.21284 c -2.1206,0.41993 -6.4225,0.20454 -8.1037,-0.40574 -4.5336,-1.64565 -8.0652,-5.43054 -9.6886,-10.38347 -0.6775,-2.06702 -0.7514,-2.63424 -0.7403,-5.6858 0.011,-2.99027 0.095,-3.6283 0.7165,-5.41426 0.3873,-1.1135 1.1732,-2.7966 1.7464,-3.74022 l 1.0424,-1.71567 -1.1721,-1.33989 -1.1721,-1.33988 0.01,-2.74233 0.01,-2.74233 2.5353,2.68285 2.5352,2.68285 2.2916,-1.16168 c 7.6356,-3.87081 15.9452,-0.81936 19.9947,7.34243 1.1744,2.36695 1.6439,4.54281 1.6439,7.6185 0,5.08606 -1.468,8.71342 -4.9467,12.22348 -1.1909,1.20158 -2.1652,2.2428 -2.1652,2.31383 0,0.071 0.5351,1.60545 1.1893,3.40984 7.4341,20.50744 9.1307,44.92676 4.6679,67.18697 -0.7725,3.85314 -2.8559,12.07425 -3.1303,12.35183 -0.053,0.0532 -0.1303,-3.17357 -0.1727,-7.17056 z m -7.9667,-77.51623 c 0.4031,-0.14457 0.3142,-0.45631 -0.788,-2.76539 -1.964,-4.11433 -4.0818,-8.00469 -6.0187,-11.05636 -2.197,-3.46155 -4.6457,-6.79984 -4.9877,-6.79984 -0.3454,0 -1.413,2.15606 -1.9367,3.91122 -0.5671,1.90068 -0.57,5.9192 -0.01,7.82243 1.7326,5.8437 6.8031,9.73297 11.9787,9.18812 0.7171,-0.0755 1.5082,-0.21057 1.7581,-0.30018 z m 7.5621,-6.33346 c 3.0993,-6.37775 1.1585,-14.2646 -4.3873,-17.82911 -3.0689,-1.97246 -7.189,-2.23541 -10.3837,-0.66269 -0.9459,0.46565 -1.7198,0.96553 -1.7198,1.11085 0,0.14531 0.5089,0.92998 1.1308,1.7437 3.305,4.32418 6.8632,10.2029 9.7441,16.09857 l 2.0042,4.10154 1.4481,-1.54523 c 0.7964,-0.84988 1.7701,-2.20781 2.1636,-3.01763 z"
       id="path385"
       transform="scale(0.26458333)" />
    <path
       style="fill:#006680;fill-opacity:1;stroke:none;stroke-width:0.985503"
       d="m 1506.4851,747.68366 -1.3536,-0.15305 1.5264,-3.1827 1.5265,-3.18269 -1.2159,-0.70913 c -1.7097,-0.99716 -4.3456,-3.59471 -5.3798,-5.30149 -1.4389,-2.37464 -2.0168,-4.46964 -2.0168,-7.31044 0,-2.84861 0.5781,-4.93605 2.031,-7.33386 1.8376,-3.03243 5.856,-6.04821 9.4773,-7.11252 2.1416,-0.62945 2.1038,-0.65426 2.1038,1.37997 v 1.79622 l -0.8944,0.16778 c -3.0813,0.57807 -6.7778,3.62893 -8.3061,6.85545 -0.7609,1.6064 -0.8383,1.99862 -0.8383,4.24696 0,2.24833 0.077,2.64055 0.8383,4.24695 0.9359,1.9757 3.1221,4.44444 4.7422,5.35502 l 1.0438,0.58663 0.3652,-0.5964 c 0.2008,-0.32803 0.969,-1.59328 1.7072,-2.81168 l 1.3421,-2.21527 v 5.16734 5.16734 l -0.7171,-0.0838 c -0.6733,-0.0787 -0.7955,0.0792 -2.0033,2.58881 -1.4246,2.95992 -1.0983,2.76029 -3.9785,2.4346 z"
       id="path387"
       transform="scale(0.26458333)" />
    <g
       id="g434"
       transform="translate(54.636885,53.856358)"
       style="fill:#aaeeff">
      <g
         id="g456"
         transform="translate(0.82787383,10.76236)">
        <path
           style="fill:#aaeeff;stroke:#000000;stroke-width:1;stroke-linecap:butt;stroke-linejoin:miter;stroke-opacity:1"
           d="M 15.220275,37.660423 5.8539519,69.662029 37.660423,74.540321 40.977663,55.807675 33.562657,42.733848 Z"
           id="path323" />
        <path
           style="fill:#aaeeff;stroke:#000000;stroke-width:1;stroke-linecap:butt;stroke-linejoin:miter;stroke-opacity:1"
           d="m 15.220275,37.562858 3.805069,14.537314 8.293099,13.073827 10.537113,9.561455"
           id="path325" />
        <path
           style="fill:#aaeeff;stroke:#000000;stroke-width:1;stroke-linecap:butt;stroke-linejoin:miter;stroke-opacity:1"
           d="m 33.172394,42.733848 -0.585396,7.415006 2.926978,5.268558 5.463688,1.073225"
           id="path327" />
        <path
           style="fill:#aaeeff;stroke:#000000;stroke-width:1;stroke-linecap:butt;stroke-linejoin:miter;stroke-opacity:1"
           d="M 18.903119,52.018072 32.356067,50.224345"
           id="path329" />
        <path
           style="fill:#aaeeff;stroke:#000000;stroke-width:1;stroke-linecap:butt;stroke-linejoin:miter;stroke-opacity:1"
           d="m 35.529586,55.536536 -8.347729,9.796507"
           id="path331" />
        <path
           style="fill:#aaeeff;stroke:#000000;stroke-width:1;stroke-linecap:butt;stroke-linejoin:miter;stroke-opacity:1"
           d="M 18.903119,52.087062 6.3470326,69.472412 27.250847,65.126075"
           id="path333" />
      </g>
      <g
         id="g461"
         transform="translate(-9.658528,9.934486)">
        <path
           style="fill:#aaeeff;stroke:#000000;stroke-width:1;stroke-linecap:butt;stroke-linejoin:miter;stroke-opacity:1"
           d="m 50.929381,64.978867 2.926977,38.245823 18.537515,10.14685 8.585795,-23.025548 z"
           id="path335" />
        <path
           style="fill:#aaeeff;stroke:#000000;stroke-width:1;stroke-linecap:butt;stroke-linejoin:miter;stroke-opacity:1"
           d="M 72.00361,112.98127 64.393471,89.370333 50.929381,65.173999"
           id="path337" />
        <path
           style="fill:#aaeeff;stroke:#000000;stroke-width:1;stroke-linecap:butt;stroke-linejoin:miter;stroke-opacity:1"
           d="M 81.174801,90.345992 63.612945,88.784937 54.246621,103.41982"
           id="path339" />
      </g>
      <path
         id="path341"
         d="m 24.391466,84.101775 -10.927376,16.976465 5.853952,27.51357 12.293299,12.48843 7.610137,-14.24461 2.926976,-28.098973 z"
         style="fill:#aaeeff;stroke:#000000;stroke-width:1;stroke-linecap:butt;stroke-linejoin:miter;stroke-opacity:1" />
      <path
         id="path343"
         d="m 31.611341,140.49485 1.17079,-13.07383 3.122107,-22.24502 -11.31764,-20.488829 -4.488029,21.269359 6.439347,22.24502 z"
         style="fill:#aaeeff;stroke:#000000;stroke-width:1;stroke-linecap:butt;stroke-linejoin:miter;stroke-opacity:1" />
      <path
         id="path345"
         d="m 13.797897,101.41454 6.209054,4.69129 15.729602,-1.10383 6.622992,-6.347036"
         style="fill:#aaeeff;stroke:#000000;stroke-width:1;stroke-linecap:butt;stroke-linejoin:miter;stroke-opacity:1" />
      <path
         id="path347"
         d="m 39.186027,126.11278 -6.071074,2.20766 -6.333123,0.27137 -7.512571,-0.2927"
         style="fill:#aaeeff;stroke:#000000;stroke-width:1;stroke-linecap:butt;stroke-linejoin:miter;stroke-opacity:1" />
      <g
         id="g473"
         transform="translate(16.005561,-8.2787383)">
        <path
           sodipodi:type="star"
           style="fill:#aaeeff;fill-opacity:1;stroke:#000000;stroke-width:0.954054;stroke-opacity:1"
           id="path391"
           sodipodi:sides="8"
           sodipodi:cx="-20.293699"
           sodipodi:cy="105.37113"
           sodipodi:r1="19.857927"
           sodipodi:r2="18.346333"
           sodipodi:arg1="0.6791333"
           sodipodi:arg2="1.0718324"
           inkscape:flatsided="true"
           inkscape:rounded="0"
           inkscape:randomized="0"
           d="m -4.8419005,117.84427 -13.3455685,7.27277 -14.579369,-4.29411 -7.272774,-13.34557 4.294114,-14.579367 13.345568,-7.272774 14.5793695,4.294114 7.27277397,13.345567 z"
           transform="matrix(0.94093755,-0.13891239,0.13891239,0.94093755,-15.640819,3.014167)" />
        <path
           transform="matrix(0.39082903,-0.05769883,0.05769883,0.39082903,-17.626086,62.696837)"
           d="m -4.8419005,117.84427 -13.3455685,7.27277 -14.579369,-4.29411 -7.272774,-13.34557 4.294114,-14.579367 13.345568,-7.272774 14.5793695,4.294114 7.27277397,13.345567 z"
           inkscape:randomized="0"
           inkscape:rounded="0"
           inkscape:flatsided="true"
           sodipodi:arg2="1.0718324"
           sodipodi:arg1="0.6791333"
           sodipodi:r2="18.346333"
           sodipodi:r1="19.857927"
           sodipodi:cy="105.37113"
           sodipodi:cx="-20.293699"
           sodipodi:sides="8"
           id="path393"
           style="fill:#aaeeff;fill-opacity:1;stroke:#000000;stroke-width:2.53123;stroke-opacity:1"
           sodipodi:type="star" />
        <path
           style="fill:#aaeeff;stroke:#000000;stroke-width:1;stroke-linecap:butt;stroke-linejoin:miter;stroke-opacity:1"
           d="m -38.220176,109.62429 11.176299,-2.75958"
           id="path395" />
        <path
           style="fill:#aaeeff;stroke:#000000;stroke-width:1;stroke-linecap:butt;stroke-linejoin:miter;stroke-opacity:1"
           d="m -26.491962,101.13858 -9.865497,-5.588144"
           id="path397" />
        <path
           style="fill:#aaeeff;stroke:#000000;stroke-width:1;stroke-linecap:butt;stroke-linejoin:miter;stroke-opacity:1"
           d="M -21.524719,97.551133 -24.836215,86.788772"
           id="path399" />
        <path
           style="fill:#aaeeff;stroke:#000000;stroke-width:1;stroke-linecap:butt;stroke-linejoin:miter;stroke-opacity:1"
           d="m -15.729603,98.103048 5.38118,-9.175601"
           id="path401" />
        <path
           style="fill:#aaeeff;stroke:#000000;stroke-width:1;stroke-linecap:butt;stroke-linejoin:miter;stroke-opacity:1"
           d="m -11.728213,103.27726 9.8654969,-2.82857"
           id="path403" />
        <path
           style="fill:#aaeeff;stroke:#000000;stroke-width:1;stroke-linecap:butt;stroke-linejoin:miter;stroke-opacity:1"
           d="m -3.6564427,114.7985 -8.9686333,-5.65714"
           id="path405" />
        <path
           style="fill:#aaeeff;stroke:#000000;stroke-width:1;stroke-linecap:butt;stroke-linejoin:miter;stroke-opacity:1"
           d="m -17.592319,112.79781 2.000695,10.41741"
           id="path407" />
        <path
           style="fill:#aaeeff;stroke:#000000;stroke-width:1;stroke-linecap:butt;stroke-linejoin:miter;stroke-opacity:1"
           d="m -23.180467,111.48701 c -6.278043,9.58954 -6.278043,9.58954 -6.278043,9.58954"
           id="path409" />
      </g>
    </g>
  </g>
</svg>
